<svg xmlns="http://www.w3.org/2000/svg" width="1100" height="850" viewBox="0 0 1100 850">
<style>text{font-family:Arial,Helvetica,sans-serif;font-size:22px}.small{font-size:17px}.axis{stroke:#222;stroke-width:2;fill:none}.grid{stroke:#ddd;stroke-width:1}.legend{font-size:20px}</style>
<rect width="100%" height="100%" fill="white"/>
<rect x="90" y="60" width="420" height="280" fill="none" class="axis"/>
<line x1="90.0" x2="90.0" y1="60" y2="340" class="grid"/>
<line x1="90" x2="510" y1="340.0" y2="340.0" class="grid"/>
<text x="65.0" y="370" class="small">-0.05</text>
<text x="35" y="347.0" class="small">-0.05</text>
<line x1="300.0" x2="300.0" y1="60" y2="340" class="grid"/>
<line x1="90" x2="510" y1="200.0" y2="200.0" class="grid"/>
<text x="275.0" y="370" class="small">0.04</text>
<text x="35" y="207.0" class="small">0.4</text>
<line x1="510.0" x2="510.0" y1="60" y2="340" class="grid"/>
<line x1="90" x2="510" y1="60.0" y2="60.0" class="grid"/>
<text x="485.0" y="370" class="small">0.13</text>
<text x="35" y="67.0" class="small">0.85</text>
<text x="245.0" y="400">Time (s)</text>
<text x="20" y="48" transform="rotate(-90 20,48)">Fuselage velocity (m/s)</text>
<text x="98" y="88" class="small">(a)</text>
<polyline points="-26.7,324.4 -15.0,324.4 -3.3,324.4 8.3,324.4 20.0,324.4 31.7,324.4 43.3,324.4 55.0,324.4 66.7,324.4 78.3,324.4 90.0,324.4 101.7,324.4 113.3,324.4 125.0,324.4 136.7,324.4 148.3,324.4 160.0,324.4 171.7,324.4 183.3,324.4 195.0,324.4 206.7,324.4 218.3,324.3 230.0,323.5 241.7,321.4 253.3,317.3 265.0,311.0 276.7,302.5 288.3,293.9 300.0,285.2 311.7,276.6 323.3,268.0 335.0,259.3 346.7,250.7 358.3,242.1 370.0,233.4 381.7,224.8 393.3,216.2 405.0,207.5 416.7,198.9 428.3,190.3 440.0,181.6 451.7,173.0 463.3,164.4 475.0,155.7 486.7,147.1 498.3,138.5 510.0,129.8 521.7,121.4 533.3,116.3 545.0,115.3 556.7,117.7 568.3,123.0 580.0,130.6 591.7,139.8 603.3,149.8 615.0,159.9" fill="none" stroke="#3498db" stroke-width="4"/>
<polyline points="-26.7,324.4 -15.0,324.4 -3.3,324.4 8.3,324.4 20.0,324.4 31.7,324.4 43.3,324.4 55.0,324.4 66.7,324.4 78.3,324.4 90.0,324.4 101.7,324.4 113.3,324.4 125.0,324.4 136.7,324.4 148.3,324.4 160.0,324.4 171.7,324.4 183.3,324.4 195.0,324.4 206.7,324.4 218.3,324.4 230.0,324.4 241.7,324.3 253.3,323.9 265.0,323.2 276.7,322.2 288.3,321.7 300.0,321.5 311.7,321.5 323.3,321.5 335.0,321.5 346.7,321.5 358.3,321.5 370.0,321.5 381.7,321.5 393.3,321.4 405.0,321.3 416.7,320.9 428.3,319.8 440.0,318.0 451.7,315.2 463.3,311.2 475.0,306.1 486.7,299.9 498.3,292.8 510.0,284.9 521.7,276.6 533.3,268.4 545.0,260.7 556.7,254.2 568.3,248.9 580.0,244.7 591.7,241.7 603.3,239.7 615.0,238.5" fill="none" stroke="#226f31" stroke-width="4"/>
<polyline points="-26.7,324.4 -15.0,324.4 -3.3,324.4 8.3,324.4 20.0,324.4 31.7,324.4 43.3,324.4 55.0,324.4 66.7,324.4 78.3,324.4 90.0,324.4 101.7,324.4 113.3,324.4 125.0,324.4 136.7,324.4 148.3,324.4 160.0,324.4 171.7,324.4 183.3,324.4 195.0,324.4 206.7,324.4 218.3,324.4 230.0,324.4 241.7,324.3 253.3,323.9 265.0,323.1 276.7,322.1 288.3,321.6 300.0,321.3 311.7,321.1 323.3,320.8 335.0,320.4 346.7,320.0 358.3,319.4 370.0,318.7 381.7,317.8 393.3,316.8 405.0,315.5 416.7,313.9 428.3,311.7 440.0,308.5 451.7,304.3 463.3,298.8 475.0,292.0 486.7,284.0 498.3,274.8 510.0,264.7 521.7,254.1 533.3,243.4 545.0,233.4 556.7,224.6 568.3,217.0 580.0,210.6 591.7,205.3 603.3,201.1 615.0,197.8" fill="none" stroke="#78b82a" stroke-width="4"/>
<polyline points="-26.7,324.4 -15.0,324.4 -3.3,324.4 8.3,324.4 20.0,324.4 31.7,324.4 43.3,324.4 55.0,324.4 66.7,324.4 78.3,324.4 90.0,324.4 101.7,324.4 113.3,324.4 125.0,324.4 136.7,324.4 148.3,324.4 160.0,324.4 171.7,324.4 183.3,324.4 195.0,324.4 206.7,324.4 218.3,324.4 230.0,324.4 241.7,324.2 253.3,323.8 265.0,322.9 276.7,321.6 288.3,320.4 300.0,319.2 311.7,317.5 323.3,315.1 335.0,311.9 346.7,307.7 358.3,302.5 370.0,296.3 381.7,289.0 393.3,280.5 405.0,270.8 416.7,260.1 428.3,248.2 440.0,235.4 451.7,221.5 463.3,206.9 475.0,191.5 486.7,175.5 498.3,159.0 510.0,142.2 521.7,125.1 533.3,108.6 545.0,93.3 556.7,79.5 568.3,67.6 580.0,57.6 591.7,49.8 603.3,43.9 615.0,40.0" fill="none" stroke="#c4a51a" stroke-width="4"/>
<polyline points="-26.7,324.4 -15.0,324.4 -3.3,324.4 8.3,324.4 20.0,324.4 31.7,324.4 43.3,324.4 55.0,324.4 66.7,324.4 78.3,324.4 90.0,324.4 101.7,324.4 113.3,324.4 125.0,324.4 136.7,324.4 148.3,324.4 160.0,324.4 171.7,324.4 183.3,324.4 195.0,324.4 206.7,324.4 218.3,324.4 230.0,324.4 241.7,324.0 253.3,323.0 265.0,320.8 276.7,316.9 288.3,311.3 300.0,303.0 311.7,291.9 323.3,278.3 335.0,263.2 346.7,247.9 358.3,233.5 370.0,221.1 381.7,211.4 393.3,204.6 405.0,200.3 416.7,197.8 428.3,195.9 440.0,193.4 451.7,189.2 463.3,182.3 475.0,172.6 486.7,160.2 498.3,145.8 510.0,130.4 521.7,115.4 533.3,102.9 545.0,93.6 556.7,88.6 568.3,88.6 580.0,93.8 591.7,103.9 603.3,118.0 615.0,134.8" fill="none" stroke="#9b3333" stroke-width="4"/>
<line x1="115" x2="170" y1="95" y2="95" stroke="#3498db" stroke-width="5"/>
<text x="180" y="102" class="legend">Fixed</text>
<line x1="115" x2="170" y1="123" y2="123" stroke="#226f31" stroke-width="5"/>
<text x="180" y="130" class="legend">kt=0</text>
<line x1="115" x2="170" y1="151" y2="151" stroke="#78b82a" stroke-width="5"/>
<text x="180" y="158" class="legend">kt=0.1</text>
<line x1="115" x2="170" y1="179" y2="179" stroke="#c4a51a" stroke-width="5"/>
<text x="180" y="186" class="legend">kt=1</text>
<line x1="115" x2="170" y1="207" y2="207" stroke="#9b3333" stroke-width="5"/>
<text x="180" y="214" class="legend">kt=10</text>
<rect x="630" y="60" width="420" height="280" fill="none" class="axis"/>
<line x1="630.0" x2="630.0" y1="60" y2="340" class="grid"/>
<line x1="630" x2="1050" y1="340.0" y2="340.0" class="grid"/>
<text x="605.0" y="370" class="small">-0.05</text>
<text x="575" y="347.0" class="small">0</text>
<line x1="840.0" x2="840.0" y1="60" y2="340" class="grid"/>
<line x1="630" x2="1050" y1="200.0" y2="200.0" class="grid"/>
<text x="815.0" y="370" class="small">0.04</text>
<text x="575" y="207.0" class="small">18</text>
<line x1="1050.0" x2="1050.0" y1="60" y2="340" class="grid"/>
<line x1="630" x2="1050" y1="60.0" y2="60.0" class="grid"/>
<text x="1025.0" y="370" class="small">0.13</text>
<text x="575" y="67.0" class="small">35</text>
<text x="785.0" y="400">Time (s)</text>
<text x="560" y="48" transform="rotate(-90 560,48)">Wing angle (deg)</text>
<text x="638" y="88" class="small">(b)</text>
<polyline points="513.3,340.0 525.0,340.0 536.7,340.0 548.3,340.0 560.0,340.0 571.7,340.0 583.3,340.0 595.0,340.0 606.7,340.0 618.3,340.0 630.0,340.0 641.7,340.0 653.3,340.0 665.0,340.0 676.7,340.0 688.3,340.0 700.0,340.0 711.7,340.0 723.3,340.0 735.0,340.0 746.7,340.0 758.3,340.0 770.0,340.0 781.7,339.8 793.3,339.3 805.0,338.4 816.7,336.9 828.3,334.6 840.0,331.5 851.7,327.4 863.3,322.3 875.0,316.3 886.7,309.3 898.3,301.4 910.0,292.5 921.7,282.7 933.3,271.9 945.0,260.2 956.7,247.6 968.3,234.2 980.0,220.0 991.7,205.4 1003.3,190.6 1015.0,175.7 1026.7,161.2 1038.3,147.2 1050.0,134.0 1061.7,121.9 1073.3,111.0 1085.0,101.6 1096.7,93.6 1108.3,87.1 1120.0,82.1 1131.7,78.4 1143.3,75.9 1155.0,74.5" fill="none" stroke="#226f31" stroke-width="4"/>
<polyline points="513.3,340.0 525.0,340.0 536.7,340.0 548.3,340.0 560.0,340.0 571.7,340.0 583.3,340.0 595.0,340.0 606.7,340.0 618.3,340.0 630.0,340.0 641.7,340.0 653.3,340.0 665.0,340.0 676.7,340.0 688.3,340.0 700.0,340.0 711.7,340.0 723.3,340.0 735.0,340.0 746.7,340.0 758.3,340.0 770.0,340.0 781.7,339.8 793.3,339.3 805.0,338.4 816.7,336.9 828.3,334.7 840.0,331.5 851.7,327.4 863.3,322.4 875.0,316.5 886.7,309.7 898.3,301.9 910.0,293.3 921.7,283.9 933.3,273.5 945.0,262.4 956.7,250.4 968.3,237.8 980.0,224.6 991.7,210.9 1003.3,197.1 1015.0,183.4 1026.7,170.1 1038.3,157.4 1050.0,145.6 1061.7,135.0 1073.3,125.8 1085.0,118.1 1096.7,112.0 1108.3,107.4 1120.0,104.5 1131.7,102.9 1143.3,102.7 1155.0,103.6" fill="none" stroke="#78b82a" stroke-width="4"/>
<polyline points="513.3,340.0 525.0,340.0 536.7,340.0 548.3,340.0 560.0,340.0 571.7,340.0 583.3,340.0 595.0,340.0 606.7,340.0 618.3,340.0 630.0,340.0 641.7,340.0 653.3,340.0 665.0,340.0 676.7,340.0 688.3,340.0 700.0,340.0 711.7,340.0 723.3,340.0 735.0,340.0 746.7,340.0 758.3,340.0 770.0,340.0 781.7,339.8 793.3,339.3 805.0,338.4 816.7,337.0 828.3,334.8 840.0,331.8 851.7,328.0 863.3,323.5 875.0,318.3 886.7,312.6 898.3,306.5 910.0,300.0 921.7,293.3 933.3,286.6 945.0,279.9 956.7,273.3 968.3,267.1 980.0,261.3 991.7,256.0 1003.3,251.3 1015.0,247.3 1026.7,244.1 1038.3,241.8 1050.0,240.3 1061.7,239.8 1073.3,240.3 1085.0,242.1 1096.7,245.3 1108.3,249.9 1120.0,255.8 1131.7,263.0 1143.3,271.1 1155.0,280.2" fill="none" stroke="#c4a51a" stroke-width="4"/>
<polyline points="513.3,340.0 525.0,340.0 536.7,340.0 548.3,340.0 560.0,340.0 571.7,340.0 583.3,340.0 595.0,340.0 606.7,340.0 618.3,340.0 630.0,340.0 641.7,340.0 653.3,340.0 665.0,340.0 676.7,340.0 688.3,340.0 700.0,340.0 711.7,340.0 723.3,340.0 735.0,340.0 746.7,340.0 758.3,340.0 770.0,340.0 781.7,339.8 793.3,339.4 805.0,338.6 816.7,337.5 828.3,336.0 840.0,334.2 851.7,332.6 863.3,331.5 875.0,330.9 886.7,331.1 898.3,332.0 910.0,333.4 921.7,335.1 933.3,336.8 945.0,338.1 956.7,338.8 968.3,338.8 980.0,338.1 991.7,336.8 1003.3,335.1 1015.0,333.4 1026.7,332.0 1038.3,331.1 1050.0,330.9 1061.7,331.5 1073.3,332.7 1085.0,334.6 1096.7,337.1 1108.3,340.1 1120.0,343.1 1131.7,346.0 1143.3,348.3 1155.0,349.9" fill="none" stroke="#9b3333" stroke-width="4"/>
<line x1="655" x2="710" y1="95" y2="95" stroke="#226f31" stroke-width="5"/>
<text x="720" y="102" class="legend">kt=0</text>
<line x1="655" x2="710" y1="123" y2="123" stroke="#78b82a" stroke-width="5"/>
<text x="720" y="130" class="legend">kt=0.1</text>
<line x1="655" x2="710" y1="151" y2="151" stroke="#c4a51a" stroke-width="5"/>
<text x="720" y="158" class="legend">kt=1</text>
<line x1="655" x2="710" y1="179" y2="179" stroke="#9b3333" stroke-width="5"/>
<text x="720" y="186" class="legend">kt=10</text>
<rect x="90" y="470" width="420" height="280" fill="none" class="axis"/>
<line x1="90.0" x2="90.0" y1="470" y2="750" class="grid"/>
<line x1="90" x2="510" y1="750.0" y2="750.0" class="grid"/>
<text x="65.0" y="780" class="small">-0.05</text>
<text x="35" y="757.0" class="small">-0.05</text>
<line x1="300.0" x2="300.0" y1="470" y2="750" class="grid"/>
<line x1="90" x2="510" y1="610.0" y2="610.0" class="grid"/>
<text x="275.0" y="780" class="small">0.04</text>
<text x="35" y="617.0" class="small">0.4</text>
<line x1="510.0" x2="510.0" y1="470" y2="750" class="grid"/>
<line x1="90" x2="510" y1="470.0" y2="470.0" class="grid"/>
<text x="485.0" y="780" class="small">0.13</text>
<text x="35" y="477.0" class="small">0.85</text>
<text x="245.0" y="810">Time (s)</text>
<text x="20" y="458" transform="rotate(-90 20,458)">Fuselage velocity (m/s)</text>
<text x="98" y="498" class="small">(c)</text>
<polyline points="-26.7,734.4 -15.0,734.4 -3.3,734.4 8.3,734.4 20.0,734.4 31.7,734.4 43.3,734.4 55.0,734.4 66.7,734.4 78.3,734.4 90.0,734.4 101.7,734.4 113.3,734.4 125.0,734.4 136.7,734.4 148.3,734.4 160.0,734.4 171.7,734.4 183.3,734.4 195.0,734.4 206.7,734.4 218.3,734.4 230.0,734.4 241.7,734.3 253.3,733.9 265.0,733.2 276.7,732.2 288.3,731.7 300.0,731.5 311.7,731.5 323.3,731.5 335.0,731.5 346.7,731.5 358.3,731.5 370.0,731.5 381.7,731.5 393.3,731.4 405.0,731.3 416.7,730.9 428.3,729.8 440.0,728.0 451.7,725.2 463.3,721.2 475.0,716.1 486.7,709.9 498.3,702.8 510.0,694.9 521.7,686.6 533.3,678.4 545.0,670.7 556.7,664.2 568.3,658.9 580.0,654.7 591.7,651.7 603.3,649.7 615.0,648.5" fill="none" stroke="#226f31" stroke-width="4"/>
<polyline points="-26.7,734.4 -15.0,734.4 -3.3,734.4 8.3,734.4 20.0,734.4 31.7,734.4 43.3,734.4 55.0,734.4 66.7,734.4 78.3,734.4 90.0,734.4 101.7,734.4 113.3,734.4 125.0,734.4 136.7,734.4 148.3,734.4 160.0,734.4 171.7,734.4 183.3,734.4 195.0,734.4 206.7,734.4 218.3,734.4 230.0,734.4 241.7,734.3 253.3,733.9 265.0,733.1 276.7,732.1 288.3,731.6 300.0,731.3 311.7,731.1 323.3,730.8 335.0,730.4 346.7,730.0 358.3,729.4 370.0,728.7 381.7,727.8 393.3,726.8 405.0,725.5 416.7,723.9 428.3,721.7 440.0,718.5 451.7,714.3 463.3,708.8 475.0,702.0 486.7,694.0 498.3,684.8 510.0,674.7 521.7,664.1 533.3,653.4 545.0,643.4 556.7,634.6 568.3,627.0 580.0,620.6 591.7,615.3 603.3,611.1 615.0,607.8" fill="none" stroke="#78b82a" stroke-width="4"/>
<polyline points="-26.7,734.4 -15.0,734.4 -3.3,734.4 8.3,734.4 20.0,734.4 31.7,734.4 43.3,734.4 55.0,734.4 66.7,734.4 78.3,734.4 90.0,734.4 101.7,734.4 113.3,734.4 125.0,734.4 136.7,734.4 148.3,734.4 160.0,734.4 171.7,734.4 183.3,734.4 195.0,734.4 206.7,734.4 218.3,734.4 230.0,734.4 241.7,734.2 253.3,733.8 265.0,732.9 276.7,731.6 288.3,730.4 300.0,729.2 311.7,727.5 323.3,725.1 335.0,721.9 346.7,717.7 358.3,712.5 370.0,706.3 381.7,699.0 393.3,690.5 405.0,680.8 416.7,670.1 428.3,658.2 440.0,645.4 451.7,631.5 463.3,616.9 475.0,601.5 486.7,585.5 498.3,569.0 510.0,552.2 521.7,535.1 533.3,518.6 545.0,503.3 556.7,489.5 568.3,477.6 580.0,467.6 591.7,459.8 603.3,453.9 615.0,450.0" fill="none" stroke="#c4a51a" stroke-width="4"/>
<polyline points="-26.7,734.4 -15.0,734.4 -3.3,734.4 8.3,734.4 20.0,734.4 31.7,734.4 43.3,734.4 55.0,734.4 66.7,734.4 78.3,734.4 90.0,734.4 101.7,734.4 113.3,734.4 125.0,734.4 136.7,734.4 148.3,734.4 160.0,734.4 171.7,734.4 183.3,734.4 195.0,734.4 206.7,734.4 218.3,734.4 230.0,734.4 241.7,734.0 253.3,733.0 265.0,730.8 276.7,726.9 288.3,721.3 300.0,713.0 311.7,701.9 323.3,688.3 335.0,673.2 346.7,657.9 358.3,643.5 370.0,631.1 381.7,621.4 393.3,614.6 405.0,610.3 416.7,607.8 428.3,605.9 440.0,603.4 451.7,599.2 463.3,592.3 475.0,582.6 486.7,570.2 498.3,555.8 510.0,540.4 521.7,525.4 533.3,512.9 545.0,503.6 556.7,498.6 568.3,498.6 580.0,503.8 591.7,513.9 603.3,528.0 615.0,544.8" fill="none" stroke="#9b3333" stroke-width="4"/>
<line x1="115" x2="170" y1="505" y2="505" stroke="#226f31" stroke-width="5"/>
<text x="180" y="512" class="legend">kt=0</text>
<line x1="115" x2="170" y1="533" y2="533" stroke="#78b82a" stroke-width="5"/>
<text x="180" y="540" class="legend">kt=0.1</text>
<line x1="115" x2="170" y1="561" y2="561" stroke="#c4a51a" stroke-width="5"/>
<text x="180" y="568" class="legend">kt=1</text>
<line x1="115" x2="170" y1="589" y2="589" stroke="#9b3333" stroke-width="5"/>
<text x="180" y="596" class="legend">kt=10</text>
<rect x="630" y="470" width="420" height="280" fill="none" class="axis"/>
<line x1="630.0" x2="630.0" y1="470" y2="750" class="grid"/>
<line x1="630" x2="1050" y1="750.0" y2="750.0" class="grid"/>
<text x="605.0" y="780" class="small">-0.05</text>
<text x="575" y="757.0" class="small">0</text>
<line x1="840.0" x2="840.0" y1="470" y2="750" class="grid"/>
<line x1="630" x2="1050" y1="610.0" y2="610.0" class="grid"/>
<text x="815.0" y="780" class="small">0.04</text>
<text x="575" y="617.0" class="small">18</text>
<line x1="1050.0" x2="1050.0" y1="470" y2="750" class="grid"/>
<line x1="630" x2="1050" y1="470.0" y2="470.0" class="grid"/>
<text x="1025.0" y="780" class="small">0.13</text>
<text x="575" y="477.0" class="small">35</text>
<text x="785.0" y="810">Time (s)</text>
<text x="560" y="458" transform="rotate(-90 560,458)">Wing angle (deg)</text>
<text x="638" y="498" class="small">(d)</text>
<polyline points="513.3,750.0 525.0,750.0 536.7,750.0 548.3,750.0 560.0,750.0 571.7,750.0 583.3,750.0 595.0,750.0 606.7,750.0 618.3,750.0 630.0,750.0 641.7,750.0 653.3,750.0 665.0,750.0 676.7,750.0 688.3,750.0 700.0,750.0 711.7,750.0 723.3,750.0 735.0,750.0 746.7,750.0 758.3,750.0 770.0,750.0 781.7,749.8 793.3,749.3 805.0,748.4 816.7,746.9 828.3,744.6 840.0,741.5 851.7,737.4 863.3,732.3 875.0,726.3 886.7,719.3 898.3,711.4 910.0,702.5 921.7,692.7 933.3,681.9 945.0,670.2 956.7,657.6 968.3,644.2 980.0,630.0 991.7,615.4 1003.3,600.6 1015.0,585.7 1026.7,571.2 1038.3,557.2 1050.0,544.0 1061.7,531.9 1073.3,521.0 1085.0,511.6 1096.7,503.6 1108.3,497.1 1120.0,492.1 1131.7,488.4 1143.3,485.9 1155.0,484.5" fill="none" stroke="#226f31" stroke-width="4"/>
<polyline points="513.3,750.0 525.0,750.0 536.7,750.0 548.3,750.0 560.0,750.0 571.7,750.0 583.3,750.0 595.0,750.0 606.7,750.0 618.3,750.0 630.0,750.0 641.7,750.0 653.3,750.0 665.0,750.0 676.7,750.0 688.3,750.0 700.0,750.0 711.7,750.0 723.3,750.0 735.0,750.0 746.7,750.0 758.3,750.0 770.0,750.0 781.7,749.8 793.3,749.3 805.0,748.4 816.7,746.9 828.3,744.7 840.0,741.5 851.7,737.4 863.3,732.4 875.0,726.5 886.7,719.7 898.3,711.9 910.0,703.3 921.7,693.9 933.3,683.5 945.0,672.4 956.7,660.4 968.3,647.8 980.0,634.6 991.7,620.9 1003.3,607.1 1015.0,593.4 1026.7,580.1 1038.3,567.4 1050.0,555.6 1061.7,545.0 1073.3,535.8 1085.0,528.1 1096.7,522.0 1108.3,517.4 1120.0,514.5 1131.7,512.9 1143.3,512.7 1155.0,513.6" fill="none" stroke="#78b82a" stroke-width="4"/>
<polyline points="513.3,750.0 525.0,750.0 536.7,750.0 548.3,750.0 560.0,750.0 571.7,750.0 583.3,750.0 595.0,750.0 606.7,750.0 618.3,750.0 630.0,750.0 641.7,750.0 653.3,750.0 665.0,750.0 676.7,750.0 688.3,750.0 700.0,750.0 711.7,750.0 723.3,750.0 735.0,750.0 746.7,750.0 758.3,750.0 770.0,750.0 781.7,749.8 793.3,749.3 805.0,748.4 816.7,747.0 828.3,744.8 840.0,741.8 851.7,738.0 863.3,733.5 875.0,728.3 886.7,722.6 898.3,716.5 910.0,710.0 921.7,703.3 933.3,696.6 945.0,689.9 956.7,683.3 968.3,677.1 980.0,671.3 991.7,666.0 1003.3,661.3 1015.0,657.3 1026.7,654.1 1038.3,651.8 1050.0,650.3 1061.7,649.8 1073.3,650.3 1085.0,652.1 1096.7,655.3 1108.3,659.9 1120.0,665.8 1131.7,673.0 1143.3,681.1 1155.0,690.2" fill="none" stroke="#c4a51a" stroke-width="4"/>
<polyline points="513.3,750.0 525.0,750.0 536.7,750.0 548.3,750.0 560.0,750.0 571.7,750.0 583.3,750.0 595.0,750.0 606.7,750.0 618.3,750.0 630.0,750.0 641.7,750.0 653.3,750.0 665.0,750.0 676.7,750.0 688.3,750.0 700.0,750.0 711.7,750.0 723.3,750.0 735.0,750.0 746.7,750.0 758.3,750.0 770.0,750.0 781.7,749.8 793.3,749.4 805.0,748.6 816.7,747.5 828.3,746.0 840.0,744.2 851.7,742.6 863.3,741.5 875.0,740.9 886.7,741.1 898.3,742.0 910.0,743.4 921.7,745.1 933.3,746.8 945.0,748.1 956.7,748.8 968.3,748.8 980.0,748.1 991.7,746.8 1003.3,745.1 1015.0,743.4 1026.7,742.0 1038.3,741.1 1050.0,740.9 1061.7,741.5 1073.3,742.7 1085.0,744.6 1096.7,747.1 1108.3,750.1 1120.0,753.1 1131.7,756.0 1143.3,758.3 1155.0,759.9" fill="none" stroke="#9b3333" stroke-width="4"/>
<line x1="655" x2="710" y1="505" y2="505" stroke="#226f31" stroke-width="5"/>
<text x="720" y="512" class="legend">kt=0</text>
<line x1="655" x2="710" y1="533" y2="533" stroke="#78b82a" stroke-width="5"/>
<text x="720" y="540" class="legend">kt=0.1</text>
<line x1="655" x2="710" y1="561" y2="561" stroke="#c4a51a" stroke-width="5"/>
<text x="720" y="568" class="legend">kt=1</text>
<line x1="655" x2="710" y1="589" y2="589" stroke="#9b3333" stroke-width="5"/>
<text x="720" y="596" class="legend">kt=10</text>
</svg>