<svg xmlns="http://www.w3.org/2000/svg" width="1140" height="465" viewBox="0 0 1140 465">
<style>text{font-family:Arial,Helvetica,sans-serif;font-size:20px}.small{font-size:15px}.axis{stroke:#222;stroke-width:2;fill:none}.grid{stroke:#ddd;stroke-width:1}.legend{font-size:17px}.ylabel{font-size:18px;font-weight:600}</style>
<rect width="100%" height="100%" fill="white"/>
<defs>
<clipPath id="clip-0"><rect x="90" y="85" width="460" height="300"/></clipPath>
<clipPath id="clip-1"><rect x="635" y="85" width="460" height="300"/></clipPath>
</defs>
<rect x="90" y="85" width="460" height="300" fill="#fbfbfb" stroke="none"/>
<line x1="90.0" x2="90.0" y1="85" y2="385" class="grid"/>
<line x1="90" x2="550" y1="385.0" y2="385.0" class="grid"/>
<text x="90.0" y="412" class="small" text-anchor="middle">-0.05</text>
<text x="74" y="390.0" class="small" text-anchor="end">-0.05</text>
<line x1="320.0" x2="320.0" y1="85" y2="385" class="grid"/>
<line x1="90" x2="550" y1="235.0" y2="235.0" class="grid"/>
<text x="320.0" y="412" class="small" text-anchor="middle">0.04</text>
<text x="74" y="240.0" class="small" text-anchor="end">0.4</text>
<line x1="550.0" x2="550.0" y1="85" y2="385" class="grid"/>
<line x1="90" x2="550" y1="85.0" y2="85.0" class="grid"/>
<text x="550.0" y="412" class="small" text-anchor="middle">0.13</text>
<text x="74" y="90.0" class="small" text-anchor="end">0.85</text>
<rect x="90" y="85" width="460" height="300" fill="none" class="axis"/>
<text x="320.0" y="443" text-anchor="middle">Time (s)</text>
<text x="90" y="53" class="ylabel">Fuselage velocity (m/s)</text>
<text x="98" y="113" class="small">(a)</text>
<g clip-path="url(#clip-0)">
<polyline points="-37.8,368.3 -25.0,368.3 -12.2,368.3 0.6,368.3 13.3,368.3 26.1,368.3 38.9,368.3 51.7,368.3 64.4,368.3 77.2,368.3 90.0,368.3 102.8,368.3 115.6,368.3 128.3,368.3 141.1,368.3 153.9,368.3 166.7,368.3 179.4,368.3 192.2,368.3 205.0,368.3 217.8,368.3 230.6,368.2 243.3,367.3 256.1,365.0 268.9,360.7 281.7,353.9 294.4,344.8 307.2,335.6 320.0,326.3 332.8,317.1 345.6,307.8 358.3,298.6 371.1,289.3 383.9,280.1 396.7,270.8 409.4,261.6 422.2,252.3 435.0,243.1 447.8,233.8 460.6,224.6 473.3,215.3 486.1,206.1 498.9,196.8 511.7,187.6 524.4,178.3 537.2,169.1 550.0,159.8 562.8,150.8 575.6,145.3 588.3,144.2 601.1,146.8 613.9,152.5 626.7,160.7 639.4,170.5 652.2,181.2 665.0,192.0" fill="none" stroke="#3498db" stroke-width="4"/>
<polyline points="-37.8,368.3 -25.0,368.3 -12.2,368.3 0.6,368.3 13.3,368.3 26.1,368.3 38.9,368.3 51.7,368.3 64.4,368.3 77.2,368.3 90.0,368.3 102.8,368.3 115.6,368.3 128.3,368.3 141.1,368.3 153.9,368.3 166.7,368.3 179.4,368.3 192.2,368.3 205.0,368.3 217.8,368.3 230.6,368.3 243.3,368.3 256.1,368.1 268.9,367.7 281.7,366.9 294.4,365.9 307.2,365.4 320.0,365.2 332.8,365.1 345.6,365.1 358.3,365.1 371.1,365.1 383.9,365.1 396.7,365.1 409.4,365.1 422.2,365.1 435.0,365.0 447.8,364.5 460.6,363.4 473.3,361.4 486.1,358.4 498.9,354.2 511.7,348.7 524.4,342.1 537.2,334.4 550.0,326.0 562.8,317.1 575.6,308.3 588.3,300.1 601.1,293.0 613.9,287.4 626.7,282.9 639.4,279.7 652.2,277.5 665.0,276.3" fill="none" stroke="#226f31" stroke-width="4"/>
<polyline points="-37.8,368.3 -25.0,368.3 -12.2,368.3 0.6,368.3 13.3,368.3 26.1,368.3 38.9,368.3 51.7,368.3 64.4,368.3 77.2,368.3 90.0,368.3 102.8,368.3 115.6,368.3 128.3,368.3 141.1,368.3 153.9,368.3 166.7,368.3 179.4,368.3 192.2,368.3 205.0,368.3 217.8,368.3 230.6,368.3 243.3,368.3 256.1,368.1 268.9,367.7 281.7,366.9 294.4,365.9 307.2,365.2 320.0,364.9 332.8,364.7 345.6,364.4 358.3,364.1 371.1,363.6 383.9,362.9 396.7,362.2 409.4,361.2 422.2,360.1 435.0,358.8 447.8,357.0 460.6,354.6 473.3,351.3 486.1,346.8 498.9,340.9 511.7,333.6 524.4,325.0 537.2,315.2 550.0,304.4 562.8,293.0 575.6,281.5 588.3,270.8 601.1,261.4 613.9,253.2 626.7,246.3 639.4,240.7 652.2,236.2 665.0,232.7" fill="none" stroke="#78b82a" stroke-width="4"/>
<polyline points="-37.8,368.3 -25.0,368.3 -12.2,368.3 0.6,368.3 13.3,368.3 26.1,368.3 38.9,368.3 51.7,368.3 64.4,368.3 77.2,368.3 90.0,368.3 102.8,368.3 115.6,368.3 128.3,368.3 141.1,368.3 153.9,368.3 166.7,368.3 179.4,368.3 192.2,368.3 205.0,368.3 217.8,368.3 230.6,368.3 243.3,368.3 256.1,368.1 268.9,367.6 281.7,366.7 294.4,365.3 307.2,364.1 320.0,362.7 332.8,360.9 345.6,358.3 358.3,354.9 371.1,350.4 383.9,344.9 396.7,338.2 409.4,330.3 422.2,321.2 435.0,310.9 447.8,299.4 460.6,286.7 473.3,272.9 486.1,258.1 498.9,242.4 511.7,225.9 524.4,208.7 537.2,191.1 550.0,173.1 562.8,154.8 575.6,137.0 588.3,120.6 601.1,105.9 613.9,93.1 626.7,82.5 639.4,74.0 652.2,67.8 665.0,63.6" fill="none" stroke="#c4a51a" stroke-width="4"/>
<polyline points="-37.8,368.3 -25.0,368.3 -12.2,368.3 0.6,368.3 13.3,368.3 26.1,368.3 38.9,368.3 51.7,368.3 64.4,368.3 77.2,368.3 90.0,368.3 102.8,368.3 115.6,368.3 128.3,368.3 141.1,368.3 153.9,368.3 166.7,368.3 179.4,368.3 192.2,368.3 205.0,368.3 217.8,368.3 230.6,368.3 243.3,368.3 256.1,367.9 268.9,366.8 281.7,364.4 294.4,360.3 307.2,354.3 320.0,345.4 332.8,333.4 345.6,318.9 358.3,302.8 371.1,286.3 383.9,270.9 396.7,257.6 409.4,247.2 422.2,239.9 435.0,235.3 447.8,232.7 460.6,230.6 473.3,228.0 486.1,223.4 498.9,216.1 511.7,205.7 524.4,192.4 537.2,176.9 550.0,160.5 562.8,144.4 575.6,130.9 588.3,121.0 601.1,115.6 613.9,115.6 626.7,121.2 639.4,132.0 652.2,147.2 665.0,165.2" fill="none" stroke="#9b3333" stroke-width="4"/>
</g>
<line x1="115" x2="170" y1="120" y2="120" stroke="#3498db" stroke-width="5"/>
<text x="180" y="127" class="legend">Fixed</text>
<line x1="115" x2="170" y1="148" y2="148" stroke="#226f31" stroke-width="5"/>
<text x="180" y="155" class="legend">kt=0</text>
<line x1="115" x2="170" y1="176" y2="176" stroke="#78b82a" stroke-width="5"/>
<text x="180" y="183" class="legend">kt=0.1</text>
<line x1="115" x2="170" y1="204" y2="204" stroke="#c4a51a" stroke-width="5"/>
<text x="180" y="211" class="legend">kt=1</text>
<line x1="115" x2="170" y1="232" y2="232" stroke="#9b3333" stroke-width="5"/>
<text x="180" y="239" class="legend">kt=10</text>
<rect x="635" y="85" width="460" height="300" fill="#fbfbfb" stroke="none"/>
<line x1="635.0" x2="635.0" y1="85" y2="385" class="grid"/>
<line x1="635" x2="1095" y1="385.0" y2="385.0" class="grid"/>
<text x="635.0" y="412" class="small" text-anchor="middle">-0.05</text>
<text x="619" y="390.0" class="small" text-anchor="end">0</text>
<line x1="865.0" x2="865.0" y1="85" y2="385" class="grid"/>
<line x1="635" x2="1095" y1="235.0" y2="235.0" class="grid"/>
<text x="865.0" y="412" class="small" text-anchor="middle">0.04</text>
<text x="619" y="240.0" class="small" text-anchor="end">18</text>
<line x1="1095.0" x2="1095.0" y1="85" y2="385" class="grid"/>
<line x1="635" x2="1095" y1="85.0" y2="85.0" class="grid"/>
<text x="1095.0" y="412" class="small" text-anchor="middle">0.13</text>
<text x="619" y="90.0" class="small" text-anchor="end">35</text>
<rect x="635" y="85" width="460" height="300" fill="none" class="axis"/>
<text x="865.0" y="443" text-anchor="middle">Time (s)</text>
<text x="635" y="53" class="ylabel">Wing angle (deg)</text>
<text x="643" y="113" class="small">(b)</text>
<g clip-path="url(#clip-1)">
<polyline points="507.2,385.0 520.0,385.0 532.8,385.0 545.6,385.0 558.3,385.0 571.1,385.0 583.9,385.0 596.7,385.0 609.4,385.0 622.2,385.0 635.0,385.0 647.8,385.0 660.6,385.0 673.3,385.0 686.1,385.0 698.9,385.0 711.7,385.0 724.4,385.0 737.2,385.0 750.0,385.0 762.8,385.0 775.6,385.0 788.3,384.9 801.1,384.8 813.9,384.3 826.7,383.3 839.4,381.7 852.2,379.3 865.0,375.9 877.8,371.5 890.6,366.0 903.3,359.6 916.1,352.1 928.9,343.7 941.7,334.2 954.4,323.6 967.2,312.1 980.0,299.5 992.8,286.0 1005.6,271.6 1018.3,256.5 1031.1,240.8 1043.9,224.9 1056.7,209.0 1069.4,193.4 1082.2,178.4 1095.0,164.3 1107.8,151.3 1120.6,139.7 1133.3,129.5 1146.1,121.0 1158.9,114.0 1171.7,108.6 1184.4,104.7 1197.2,102.0 1210.0,100.5" fill="none" stroke="#226f31" stroke-width="4"/>
<polyline points="507.2,385.0 520.0,385.0 532.8,385.0 545.6,385.0 558.3,385.0 571.1,385.0 583.9,385.0 596.7,385.0 609.4,385.0 622.2,385.0 635.0,385.0 647.8,385.0 660.6,385.0 673.3,385.0 686.1,385.0 698.9,385.0 711.7,385.0 724.4,385.0 737.2,385.0 750.0,385.0 762.8,385.0 775.6,385.0 788.3,384.9 801.1,384.8 813.9,384.3 826.7,383.3 839.4,381.7 852.2,379.3 865.0,375.9 877.8,371.5 890.6,366.2 903.3,359.8 916.1,352.5 928.9,344.2 941.7,335.0 954.4,324.9 967.2,313.8 980.0,301.8 992.8,289.0 1005.6,275.5 1018.3,261.3 1031.1,246.7 1043.9,231.9 1056.7,217.2 1069.4,202.9 1082.2,189.3 1095.0,176.7 1107.8,165.4 1120.6,155.5 1133.3,147.2 1146.1,140.7 1158.9,135.8 1171.7,132.6 1184.4,131.0 1197.2,130.8 1210.0,131.7" fill="none" stroke="#78b82a" stroke-width="4"/>
<polyline points="507.2,385.0 520.0,385.0 532.8,385.0 545.6,385.0 558.3,385.0 571.1,385.0 583.9,385.0 596.7,385.0 609.4,385.0 622.2,385.0 635.0,385.0 647.8,385.0 660.6,385.0 673.3,385.0 686.1,385.0 698.9,385.0 711.7,385.0 724.4,385.0 737.2,385.0 750.0,385.0 762.8,385.0 775.6,385.0 788.3,384.9 801.1,384.8 813.9,384.3 826.7,383.3 839.4,381.8 852.2,379.4 865.0,376.2 877.8,372.1 890.6,367.3 903.3,361.8 916.1,355.7 928.9,349.1 941.7,342.2 954.4,335.0 967.2,327.8 980.0,320.6 992.8,313.6 1005.6,306.9 1018.3,300.7 1031.1,295.0 1043.9,290.0 1056.7,285.7 1069.4,282.3 1082.2,279.8 1095.0,278.2 1107.8,277.6 1120.6,278.2 1133.3,280.1 1146.1,283.5 1158.9,288.4 1171.7,294.8 1184.4,302.5 1197.2,311.2 1210.0,320.9" fill="none" stroke="#c4a51a" stroke-width="4"/>
<polyline points="507.2,385.0 520.0,385.0 532.8,385.0 545.6,385.0 558.3,385.0 571.1,385.0 583.9,385.0 596.7,385.0 609.4,385.0 622.2,385.0 635.0,385.0 647.8,385.0 660.6,385.0 673.3,385.0 686.1,385.0 698.9,385.0 711.7,385.0 724.4,385.0 737.2,385.0 750.0,385.0 762.8,385.0 775.6,385.0 788.3,384.9 801.1,384.8 813.9,384.3 826.7,383.5 839.4,382.3 852.2,380.7 865.0,378.8 877.8,377.1 890.6,375.9 903.3,375.3 916.1,375.5 928.9,376.4 941.7,378.0 954.4,379.8 967.2,381.6 980.0,383.0 992.8,383.8 1005.6,383.7 1018.3,383.0 1031.1,381.6 1043.9,379.8 1056.7,378.0 1069.4,376.4 1082.2,375.5 1095.0,375.3 1107.8,375.9 1120.6,377.2 1133.3,379.2 1146.1,381.9 1158.9,385.1 1171.7,388.4 1184.4,391.4 1197.2,393.9 1210.0,395.6" fill="none" stroke="#9b3333" stroke-width="4"/>
</g>
<line x1="660" x2="715" y1="120" y2="120" stroke="#226f31" stroke-width="5"/>
<text x="725" y="127" class="legend">kt=0</text>
<line x1="660" x2="715" y1="148" y2="148" stroke="#78b82a" stroke-width="5"/>
<text x="725" y="155" class="legend">kt=0.1</text>
<line x1="660" x2="715" y1="176" y2="176" stroke="#c4a51a" stroke-width="5"/>
<text x="725" y="183" class="legend">kt=1</text>
<line x1="660" x2="715" y1="204" y2="204" stroke="#9b3333" stroke-width="5"/>
<text x="725" y="211" class="legend">kt=10</text>
</svg>