<svg xmlns="http://www.w3.org/2000/svg" width="1100" height="850" viewBox="0 0 1100 850">
<style>text{font-family:Arial,Helvetica,sans-serif;font-size:22px}.small{font-size:17px}.axis{stroke:#222;stroke-width:2;fill:none}.grid{stroke:#ddd;stroke-width:1}.legend{font-size:20px}</style>
<rect width="100%" height="100%" fill="white"/>
<rect x="90" y="60" width="420" height="280" fill="none" class="axis"/>
<line x1="90.0" x2="90.0" y1="60" y2="340" class="grid"/>
<line x1="90" x2="510" y1="340.0" y2="340.0" class="grid"/>
<text x="65.0" y="370" class="small">-0.05</text>
<text x="35" y="347.0" class="small">0.2</text>
<line x1="300.0" x2="300.0" y1="60" y2="340" class="grid"/>
<line x1="90" x2="510" y1="200.0" y2="200.0" class="grid"/>
<text x="275.0" y="370" class="small">0.04</text>
<text x="35" y="207.0" class="small">0.43</text>
<line x1="510.0" x2="510.0" y1="60" y2="340" class="grid"/>
<line x1="90" x2="510" y1="60.0" y2="60.0" class="grid"/>
<text x="485.0" y="370" class="small">0.13</text>
<text x="35" y="67.0" class="small">0.65</text>
<text x="245.0" y="400">Time (s)</text>
<text x="20" y="48" transform="rotate(-90 20,48)">Centre of pressure</text>
<text x="98" y="88" class="small">(a)</text>
<polyline points="-26.7,153.3 -15.0,153.3 -3.3,153.3 8.3,153.3 20.0,153.3 31.7,153.3 43.3,153.3 55.0,153.3 66.7,153.3 78.3,153.3 90.0,153.3 101.7,153.3 113.3,153.3 125.0,153.3 136.7,153.3 148.3,153.3 160.0,153.3 171.7,153.3 183.3,153.3 195.0,153.3 206.7,153.3 218.3,153.3 230.0,153.3 241.7,153.3 253.3,153.3 265.0,153.3 276.7,153.3 288.3,153.3 300.0,153.3 311.7,153.3 323.3,153.3 335.0,153.3 346.7,153.3 358.3,153.3 370.0,153.3 381.7,153.3 393.3,153.3 405.0,153.3 416.7,153.3 428.3,153.3 440.0,153.3 451.7,153.3 463.3,153.3 475.0,153.3 486.7,153.3 498.3,153.3 510.0,153.3 521.7,153.3 533.3,153.3 545.0,153.3 556.7,153.3 568.3,153.3 580.0,153.3 591.7,153.3 603.3,153.3 615.0,153.3" fill="none" stroke="#3498db" stroke-width="4"/>
<polyline points="-26.7,153.3 -15.0,153.3 -3.3,153.3 8.3,153.3 20.0,153.3 31.7,153.3 43.3,153.3 55.0,153.3 66.7,153.3 78.3,153.3 90.0,153.3 101.7,153.3 113.3,153.3 125.0,153.3 136.7,153.3 148.3,153.3 160.0,153.3 171.7,153.3 183.3,153.3 195.0,153.3 206.7,153.3 218.3,153.6 230.0,155.4 241.7,159.0 253.3,164.4 265.0,171.0 276.7,173.9 288.3,173.4 300.0,172.8 311.7,172.7 323.3,173.0 335.0,173.8 346.7,175.3 358.3,177.5 370.0,180.5 381.7,184.2 393.3,188.8 405.0,194.2 416.7,200.5 428.3,207.4 440.0,214.8 451.7,222.7 463.3,230.5 475.0,238.1 486.7,244.8 498.3,250.2 510.0,253.4 521.7,253.4 533.3,247.9 545.0,233.0 556.7,213.1 568.3,191.5 580.0,170.6 591.7,152.8 603.3,139.7 615.0,132.1" fill="none" stroke="#b6d33a" stroke-width="4"/>
<polyline points="-26.7,153.3 -15.0,153.3 -3.3,153.3 8.3,153.3 20.0,153.3 31.7,153.3 43.3,153.3 55.0,153.3 66.7,153.3 78.3,153.3 90.0,153.3 101.7,153.3 113.3,153.3 125.0,153.3 136.7,153.3 148.3,153.3 160.0,153.3 171.7,153.3 183.3,153.3 195.0,153.3 206.7,153.3 218.3,153.5 230.0,154.6 241.7,157.1 253.3,160.8 265.0,165.4 276.7,165.2 288.3,162.1 300.0,159.9 311.7,158.5 323.3,157.8 335.0,157.6 346.7,158.0 358.3,159.0 370.0,160.8 381.7,163.6 393.3,167.7 405.0,173.0 416.7,180.0 428.3,188.5 440.0,198.6 451.7,210.2 463.3,223.0 475.0,236.8 486.7,251.0 498.3,264.9 510.0,277.4 521.7,286.6 533.3,289.8 545.0,282.0 556.7,264.5 568.3,240.1 580.0,211.9 591.7,184.9 603.3,163.1 615.0,148.4" fill="none" stroke="#80b82d" stroke-width="4"/>
<polyline points="-26.7,153.3 -15.0,153.3 -3.3,153.3 8.3,153.3 20.0,153.3 31.7,153.3 43.3,153.3 55.0,153.3 66.7,153.3 78.3,153.3 90.0,153.3 101.7,153.3 113.3,153.3 125.0,153.3 136.7,153.3 148.3,153.3 160.0,153.3 171.7,153.3 183.3,153.3 195.0,153.3 206.7,153.3 218.3,153.5 230.0,154.3 241.7,156.1 253.3,158.9 265.0,162.5 276.7,160.1 288.3,156.2 300.0,154.1 311.7,153.4 323.3,153.3 335.0,153.3 346.7,153.3 358.3,153.3 370.0,153.3 381.7,153.3 393.3,153.7 405.0,155.6 416.7,159.5 428.3,166.0 440.0,175.1 451.7,186.7 463.3,200.9 475.0,217.3 486.7,235.7 498.3,255.6 510.0,276.0 521.7,295.6 533.3,311.5 545.0,318.4 556.7,313.7 568.3,296.2 580.0,266.4 591.7,230.6 603.3,197.5 615.0,172.8" fill="none" stroke="#3a8f2d" stroke-width="4"/>
<line x1="115" x2="170" y1="95" y2="95" stroke="#3498db" stroke-width="5"/>
<text x="180" y="102" class="legend">Fixed</text>
<line x1="115" x2="170" y1="123" y2="123" stroke="#b6d33a" stroke-width="5"/>
<text x="180" y="130" class="legend">0.20 M</text>
<line x1="115" x2="170" y1="151" y2="151" stroke="#80b82d" stroke-width="5"/>
<text x="180" y="158" class="legend">0.35 M</text>
<line x1="115" x2="170" y1="179" y2="179" stroke="#3a8f2d" stroke-width="5"/>
<text x="180" y="186" class="legend">0.50 M</text>
<rect x="630" y="60" width="420" height="280" fill="none" class="axis"/>
<line x1="630.0" x2="630.0" y1="60" y2="340" class="grid"/>
<line x1="630" x2="1050" y1="340.0" y2="340.0" class="grid"/>
<text x="605.0" y="370" class="small">-0.05</text>
<text x="575" y="347.0" class="small">-0.05</text>
<line x1="840.0" x2="840.0" y1="60" y2="340" class="grid"/>
<line x1="630" x2="1050" y1="200.0" y2="200.0" class="grid"/>
<text x="815.0" y="370" class="small">0.04</text>
<text x="575" y="207.0" class="small">0.33</text>
<line x1="1050.0" x2="1050.0" y1="60" y2="340" class="grid"/>
<line x1="630" x2="1050" y1="60.0" y2="60.0" class="grid"/>
<text x="1025.0" y="370" class="small">0.13</text>
<text x="575" y="67.0" class="small">0.7</text>
<text x="785.0" y="400">Time (s)</text>
<text x="560" y="48" transform="rotate(-90 560,48)">Fuselage velocity (m/s)</text>
<text x="638" y="88" class="small">(b)</text>
<polyline points="513.3,321.3 525.0,321.3 536.7,321.3 548.3,321.3 560.0,321.3 571.7,321.3 583.3,321.3 595.0,321.3 606.7,321.3 618.3,321.3 630.0,321.3 641.7,321.3 653.3,321.3 665.0,321.3 676.7,321.3 688.3,321.3 700.0,321.3 711.7,321.3 723.3,321.3 735.0,321.3 746.7,321.3 758.3,321.2 770.0,320.2 781.7,317.6 793.3,312.8 805.0,305.2 816.7,295.0 828.3,284.6 840.0,274.3 851.7,263.9 863.3,253.6 875.0,243.2 886.7,232.8 898.3,222.5 910.0,212.1 921.7,201.8 933.3,191.4 945.0,181.0 956.7,170.7 968.3,160.3 980.0,150.0 991.7,139.6 1003.3,129.2 1015.0,118.9 1026.7,108.5 1038.3,98.2 1050.0,87.8 1061.7,77.7 1073.3,71.6 1085.0,70.3 1096.7,73.2 1108.3,79.6 1120.0,88.8 1131.7,99.8 1143.3,111.8 1155.0,123.9" fill="none" stroke="#3498db" stroke-width="4"/>
<polyline points="513.3,321.3 525.0,321.3 536.7,321.3 548.3,321.3 560.0,321.3 571.7,321.3 583.3,321.3 595.0,321.3 606.7,321.3 618.3,321.3 630.0,321.3 641.7,321.3 653.3,321.3 665.0,321.3 676.7,321.3 688.3,321.3 700.0,321.3 711.7,321.3 723.3,321.3 735.0,321.3 746.7,321.3 758.3,321.3 770.0,321.3 781.7,321.0 793.3,320.3 805.0,319.1 816.7,317.2 828.3,315.3 840.0,313.4 851.7,311.5 863.3,309.6 875.0,307.6 886.7,305.5 898.3,303.3 910.0,300.8 921.7,298.1 933.3,295.0 945.0,291.5 956.7,287.6 968.3,283.2 980.0,278.3 991.7,272.9 1003.3,267.1 1015.0,261.0 1026.7,254.5 1038.3,247.8 1050.0,241.2 1061.7,234.6 1073.3,228.6 1085.0,223.5 1096.7,219.7 1108.3,217.2 1120.0,215.8 1131.7,215.4 1143.3,215.8 1155.0,216.7" fill="none" stroke="#b6d33a" stroke-width="4"/>
<polyline points="513.3,321.3 525.0,321.3 536.7,321.3 548.3,321.3 560.0,321.3 571.7,321.3 583.3,321.3 595.0,321.3 606.7,321.3 618.3,321.3 630.0,321.3 641.7,321.3 653.3,321.3 665.0,321.3 676.7,321.3 688.3,321.3 700.0,321.3 711.7,321.3 723.3,321.3 735.0,321.3 746.7,321.3 758.3,321.3 770.0,321.3 781.7,321.1 793.3,320.6 805.0,319.6 816.7,318.2 828.3,317.0 840.0,316.1 851.7,315.4 863.3,314.8 875.0,314.3 886.7,313.8 898.3,313.2 910.0,312.4 921.7,311.4 933.3,310.0 945.0,308.1 956.7,305.6 968.3,302.3 980.0,298.2 991.7,293.2 1003.3,287.3 1015.0,280.6 1026.7,273.1 1038.3,265.1 1050.0,256.7 1061.7,248.2 1073.3,240.1 1085.0,232.9 1096.7,227.1 1108.3,222.6 1120.0,219.5 1131.7,217.6 1143.3,216.6 1155.0,216.6" fill="none" stroke="#80b82d" stroke-width="4"/>
<polyline points="513.3,321.3 525.0,321.3 536.7,321.3 548.3,321.3 560.0,321.3 571.7,321.3 583.3,321.3 595.0,321.3 606.7,321.3 618.3,321.3 630.0,321.3 641.7,321.3 653.3,321.3 665.0,321.3 676.7,321.3 688.3,321.3 700.0,321.3 711.7,321.3 723.3,321.3 735.0,321.3 746.7,321.3 758.3,321.3 770.0,321.3 781.7,321.1 793.3,320.7 805.0,319.8 816.7,318.6 828.3,318.0 840.0,317.8 851.7,317.7 863.3,317.7 875.0,317.7 886.7,317.7 898.3,317.7 910.0,317.7 921.7,317.7 933.3,317.7 945.0,317.6 956.7,317.0 968.3,315.8 980.0,313.6 991.7,310.2 1003.3,305.5 1015.0,299.3 1026.7,291.9 1038.3,283.3 1050.0,273.9 1061.7,264.0 1073.3,254.1 1085.0,244.9 1096.7,237.0 1108.3,230.6 1120.0,225.7 1131.7,222.1 1143.3,219.6 1155.0,218.2" fill="none" stroke="#3a8f2d" stroke-width="4"/>
<line x1="655" x2="710" y1="95" y2="95" stroke="#3498db" stroke-width="5"/>
<text x="720" y="102" class="legend">Fixed</text>
<line x1="655" x2="710" y1="123" y2="123" stroke="#b6d33a" stroke-width="5"/>
<text x="720" y="130" class="legend">0.20 M</text>
<line x1="655" x2="710" y1="151" y2="151" stroke="#80b82d" stroke-width="5"/>
<text x="720" y="158" class="legend">0.35 M</text>
<line x1="655" x2="710" y1="179" y2="179" stroke="#3a8f2d" stroke-width="5"/>
<text x="720" y="186" class="legend">0.50 M</text>
<rect x="90" y="470" width="420" height="280" fill="none" class="axis"/>
<line x1="90.0" x2="90.0" y1="470" y2="750" class="grid"/>
<line x1="90" x2="510" y1="750.0" y2="750.0" class="grid"/>
<text x="65.0" y="780" class="small">-0.05</text>
<text x="35" y="757.0" class="small">-0.05</text>
<line x1="300.0" x2="300.0" y1="470" y2="750" class="grid"/>
<line x1="90" x2="510" y1="610.0" y2="610.0" class="grid"/>
<text x="275.0" y="780" class="small">0.04</text>
<text x="35" y="617.0" class="small">0.33</text>
<line x1="510.0" x2="510.0" y1="470" y2="750" class="grid"/>
<line x1="90" x2="510" y1="470.0" y2="470.0" class="grid"/>
<text x="485.0" y="780" class="small">0.13</text>
<text x="35" y="477.0" class="small">0.7</text>
<text x="245.0" y="810">Time (s)</text>
<text x="20" y="458" transform="rotate(-90 20,458)">Rejection (m/s)</text>
<text x="98" y="498" class="small">(c)</text>
<polyline points="-26.7,731.3 -15.0,731.3 -3.3,731.3 8.3,731.3 20.0,731.3 31.7,731.3 43.3,731.3 55.0,731.3 66.7,731.3 78.3,731.3 90.0,731.3 101.7,731.3 113.3,731.3 125.0,731.3 136.7,731.3 148.3,731.3 160.0,731.3 171.7,731.3 183.3,731.3 195.0,731.3 206.7,731.3 218.3,731.2 230.0,730.5 241.7,728.8 253.3,726.0 265.0,722.2 276.7,717.4 288.3,711.9 300.0,706.0 311.7,699.8 323.3,693.6 335.0,687.5 346.7,681.6 358.3,676.2 370.0,671.3 381.7,667.2 393.3,663.9 405.0,661.7 416.7,660.6 428.3,660.8 440.0,662.1 451.7,664.6 463.3,668.2 475.0,672.8 486.7,678.2 498.3,684.2 510.0,690.6 521.7,697.3 533.3,704.0 545.0,710.6 556.7,716.8 568.3,722.5 580.0,727.4 591.7,731.5 603.3,734.6 615.0,736.8" fill="none" stroke="#b6d33a" stroke-width="4"/>
<polyline points="-26.7,731.3 -15.0,731.3 -3.3,731.3 8.3,731.3 20.0,731.3 31.7,731.3 43.3,731.3 55.0,731.3 66.7,731.3 78.3,731.3 90.0,731.3 101.7,731.3 113.3,731.3 125.0,731.3 136.7,731.3 148.3,731.3 160.0,731.3 171.7,731.3 183.3,731.3 195.0,731.3 206.7,731.3 218.3,731.3 230.0,731.2 241.7,730.5 253.3,729.1 265.0,726.5 276.7,723.0 288.3,720.1 300.0,717.6 311.7,715.3 323.3,713.1 335.0,710.8 346.7,708.3 358.3,705.7 370.0,702.6 381.7,699.2 393.3,695.1 405.0,690.5 416.7,685.1 428.3,679.1 440.0,672.3 451.7,664.7 463.3,656.6 475.0,647.8 486.7,638.5 498.3,628.8 510.0,618.7 521.7,608.4 533.3,601.6 545.0,598.8 556.7,599.3 568.3,602.7 580.0,608.3 591.7,615.6 603.3,624.0 615.0,633.0" fill="none" stroke="#b6d33a" stroke-width="4" stroke-dasharray="8 6"/>
<polyline points="-26.7,731.3 -15.0,731.3 -3.3,731.3 8.3,731.3 20.0,731.3 31.7,731.3 43.3,731.3 55.0,731.3 66.7,731.3 78.3,731.3 90.0,731.3 101.7,731.3 113.3,731.3 125.0,731.3 136.7,731.3 148.3,731.3 160.0,731.3 171.7,731.3 183.3,731.3 195.0,731.3 206.7,731.3 218.3,731.2 230.0,730.4 241.7,728.4 253.3,724.9 265.0,719.9 276.7,713.3 288.3,705.5 300.0,696.9 311.7,687.8 323.3,678.6 335.0,669.3 346.7,660.0 358.3,651.0 370.0,642.3 381.7,634.4 393.3,627.3 405.0,621.4 416.7,617.0 428.3,614.4 440.0,613.7 451.7,615.1 463.3,618.5 475.0,623.9 486.7,631.0 498.3,639.7 510.0,649.6 521.7,660.3 533.3,671.5 545.0,682.8 556.7,693.7 568.3,703.9 580.0,713.2 591.7,721.3 603.3,728.0 615.0,733.2" fill="none" stroke="#80b82d" stroke-width="4"/>
<polyline points="-26.7,731.3 -15.0,731.3 -3.3,731.3 8.3,731.3 20.0,731.3 31.7,731.3 43.3,731.3 55.0,731.3 66.7,731.3 78.3,731.3 90.0,731.3 101.7,731.3 113.3,731.3 125.0,731.3 136.7,731.3 148.3,731.3 160.0,731.3 171.7,731.3 183.3,731.3 195.0,731.3 206.7,731.3 218.3,731.3 230.0,731.2 241.7,730.9 253.3,730.0 265.0,728.4 276.7,726.2 288.3,724.9 300.0,724.0 311.7,723.3 323.3,722.8 335.0,722.3 346.7,721.7 358.3,721.0 370.0,720.0 381.7,718.7 393.3,716.8 405.0,714.2 416.7,710.8 428.3,706.3 440.0,700.8 451.7,694.1 463.3,686.2 475.0,677.1 486.7,667.1 498.3,656.1 510.0,644.2 521.7,631.8 533.3,622.6 545.0,617.3 556.7,615.1 568.3,615.8 580.0,618.8 591.7,623.6 603.3,629.8 615.0,636.8" fill="none" stroke="#80b82d" stroke-width="4" stroke-dasharray="8 6"/>
<polyline points="-26.7,731.3 -15.0,731.3 -3.3,731.3 8.3,731.3 20.0,731.3 31.7,731.3 43.3,731.3 55.0,731.3 66.7,731.3 78.3,731.3 90.0,731.3 101.7,731.3 113.3,731.3 125.0,731.3 136.7,731.3 148.3,731.3 160.0,731.3 171.7,731.3 183.3,731.3 195.0,731.3 206.7,731.3 218.3,731.2 230.0,730.3 241.7,728.2 253.3,724.3 265.0,718.7 276.7,711.0 288.3,701.9 300.0,691.9 311.7,681.6 323.3,671.3 335.0,661.0 346.7,650.7 358.3,640.5 370.0,630.4 381.7,620.3 393.3,610.5 405.0,601.0 416.7,592.5 428.3,585.4 440.0,580.3 451.7,577.8 463.3,578.1 475.0,581.3 486.7,587.4 498.3,596.2 510.0,607.3 521.7,620.2 533.3,634.3 545.0,649.1 556.7,663.9 568.3,678.1 580.0,691.4 591.7,703.5 603.3,713.9 615.0,722.5" fill="none" stroke="#3a8f2d" stroke-width="4"/>
<line x1="115" x2="170" y1="505" y2="505" stroke="#b6d33a" stroke-width="5"/>
<text x="180" y="512" class="legend">Inertial 0.20</text>
<line x1="115" x2="170" y1="533" y2="533" stroke="#b6d33a" stroke-width="5" stroke-dasharray="8 6"/>
<text x="180" y="540" class="legend">Aero 0.20</text>
<line x1="115" x2="170" y1="561" y2="561" stroke="#80b82d" stroke-width="5"/>
<text x="180" y="568" class="legend">Inertial 0.35</text>
<line x1="115" x2="170" y1="589" y2="589" stroke="#80b82d" stroke-width="5" stroke-dasharray="8 6"/>
<text x="180" y="596" class="legend">Aero 0.35</text>
<line x1="115" x2="170" y1="617" y2="617" stroke="#3a8f2d" stroke-width="5"/>
<text x="180" y="624" class="legend">Inertial 0.50</text>
<rect x="630" y="470" width="420" height="280" fill="none" class="axis"/>
<line x1="630.0" x2="630.0" y1="470" y2="750" class="grid"/>
<line x1="630" x2="1050" y1="750.0" y2="750.0" class="grid"/>
<text x="605.0" y="780" class="small">-0.05</text>
<text x="575" y="757.0" class="small">-0.05</text>
<line x1="840.0" x2="840.0" y1="470" y2="750" class="grid"/>
<line x1="630" x2="1050" y1="610.0" y2="610.0" class="grid"/>
<text x="815.0" y="780" class="small">0.04</text>
<text x="575" y="617.0" class="small">0.33</text>
<line x1="1050.0" x2="1050.0" y1="470" y2="750" class="grid"/>
<line x1="630" x2="1050" y1="470.0" y2="470.0" class="grid"/>
<text x="1025.0" y="780" class="small">0.13</text>
<text x="575" y="477.0" class="small">0.7</text>
<text x="785.0" y="810">Time (s)</text>
<text x="560" y="458" transform="rotate(-90 560,458)">Rejection (m/s)</text>
<text x="638" y="498" class="small">(d)</text>
<polyline points="513.3,731.3 525.0,731.3 536.7,731.3 548.3,731.3 560.0,731.3 571.7,731.3 583.3,731.3 595.0,731.3 606.7,731.3 618.3,731.3 630.0,731.3 641.7,731.3 653.3,731.3 665.0,731.3 676.7,731.3 688.3,731.3 700.0,731.3 711.7,731.3 723.3,731.3 735.0,731.3 746.7,731.3 758.3,731.3 770.0,731.3 781.7,731.0 793.3,730.5 805.0,729.4 816.7,728.0 828.3,727.4 840.0,727.3 851.7,727.2 863.3,727.2 875.0,727.1 886.7,727.1 898.3,726.9 910.0,726.7 921.7,726.4 933.3,725.9 945.0,725.1 956.7,723.8 968.3,721.8 980.0,718.7 991.7,714.3 1003.3,708.4 1015.0,700.9 1026.7,691.9 1038.3,681.3 1050.0,669.3 1061.7,656.2 1073.3,645.8 1085.0,639.0 1096.7,635.0 1108.3,633.5 1120.0,634.3 1131.7,636.9 1143.3,640.9 1155.0,645.8" fill="none" stroke="#3a8f2d" stroke-width="4" stroke-dasharray="8 6"/>
<line x1="655" x2="710" y1="505" y2="505" stroke="#3a8f2d" stroke-width="5" stroke-dasharray="8 6"/>
<text x="720" y="512" class="legend">Aero 0.50</text>
</svg>