<svg xmlns="http://www.w3.org/2000/svg" width="1100" height="850" viewBox="0 0 1100 850">
<style>text{font-family:Arial,Helvetica,sans-serif;font-size:22px}.small{font-size:17px}.axis{stroke:#222;stroke-width:2;fill:none}.grid{stroke:#ddd;stroke-width:1}.legend{font-size:20px}</style>
<rect width="100%" height="100%" fill="white"/>
<rect x="90" y="60" width="420" height="280" fill="none" class="axis"/>
<line x1="90.0" x2="90.0" y1="60" y2="340" class="grid"/>
<line x1="90" x2="510" y1="340.0" y2="340.0" class="grid"/>
<text x="65.0" y="370" class="small">0</text>
<text x="35" y="347.0" class="small">0</text>
<line x1="300.0" x2="300.0" y1="60" y2="340" class="grid"/>
<line x1="90" x2="510" y1="200.0" y2="200.0" class="grid"/>
<text x="275.0" y="370" class="small">12</text>
<text x="35" y="207.0" class="small">0.8</text>
<line x1="510.0" x2="510.0" y1="60" y2="340" class="grid"/>
<line x1="90" x2="510" y1="60.0" y2="60.0" class="grid"/>
<text x="485.0" y="370" class="small">25</text>
<text x="35" y="67.0" class="small">1.6</text>
<text x="245.0" y="400">AoA (deg)</text>
<text x="20" y="48" transform="rotate(-90 20,48)">Lift coefficient</text>
<text x="98" y="88" class="small">(a)</text>
<polyline points="90.0,340.0 92.1,337.6 94.2,335.2 96.3,332.8 98.4,330.4 100.6,327.9 102.7,325.5 104.8,323.1 106.9,320.7 109.0,318.3 111.1,315.9 113.2,313.5 115.3,311.1 117.4,308.7 119.5,306.2 121.7,303.8 123.8,301.4 125.9,299.0 128.0,296.6 130.1,294.2 132.2,291.8 134.3,289.4 136.4,287.0 138.5,284.5 140.7,282.1 142.8,279.7 144.9,277.3 147.0,274.9 149.1,272.5 151.2,270.1 153.3,267.7 155.4,265.3 157.5,262.9 159.6,260.4 161.8,258.0 163.9,255.6 166.0,253.2 168.1,250.8 170.2,248.4 172.3,246.0 174.4,243.6 176.5,241.2 178.6,238.7 180.8,236.3 182.9,233.9 185.0,231.5 187.1,229.1 189.2,226.7 191.3,224.3 193.4,221.9 195.5,219.5 197.6,217.0 199.7,214.6 201.9,212.2 204.0,209.8 206.1,207.4 208.2,205.0 210.3,202.6 212.4,200.2 214.5,197.8 216.6,195.3 218.7,192.9 220.9,190.5 223.0,188.1 225.1,185.7 227.2,183.3 229.3,180.9 231.4,178.5 233.5,176.1 235.6,173.6 237.7,171.2 239.8,168.8 242.0,166.4 244.1,165.0 246.2,165.0 248.3,165.0 250.4,165.0 252.5,165.0 254.6,165.0 256.7,165.0 258.8,165.0 261.0,165.0 263.1,165.0 265.2,165.0 267.3,165.0 269.4,165.0 271.5,165.0 273.6,165.0 275.7,165.0 277.8,165.0 279.9,165.0 282.1,165.0 284.2,165.0 286.3,165.0 288.4,165.0 290.5,165.0 292.6,165.0 294.7,165.0 296.8,165.0 298.9,165.0 301.1,165.0 303.2,165.0 305.3,165.0 307.4,165.0 309.5,165.0 311.6,165.0 313.7,165.0 315.8,165.0 317.9,165.0 320.1,165.0 322.2,165.0 324.3,165.0 326.4,165.0 328.5,165.0 330.6,165.0 332.7,165.0 334.8,165.0 336.9,165.0 339.0,165.0 341.2,165.0 343.3,165.0 345.4,165.0 347.5,165.0 349.6,165.0 351.7,165.0 353.8,165.0 355.9,165.0 358.0,165.0 360.2,165.0 362.3,165.0 364.4,165.0 366.5,165.0 368.6,165.0 370.7,165.0 372.8,165.0 374.9,165.0 377.0,165.0 379.1,165.0 381.3,165.0 383.4,165.0 385.5,165.0 387.6,165.0 389.7,165.0 391.8,165.0 393.9,165.0 396.0,165.0 398.1,165.0 400.3,165.0 402.4,165.0 404.5,165.0 406.6,165.0 408.7,165.0 410.8,165.0 412.9,165.0 415.0,165.0 417.1,165.0 419.2,165.0 421.4,165.0 423.5,165.0 425.6,165.0 427.7,165.0 429.8,165.0 431.9,165.0 434.0,165.0 436.1,165.0 438.2,165.0 440.4,165.0 442.5,165.0 444.6,165.0 446.7,165.0 448.8,165.0 450.9,165.0 453.0,165.0 455.1,165.0 457.2,165.0 459.3,165.0 461.5,165.0 463.6,165.0 465.7,165.0 467.8,165.0 469.9,165.0 472.0,165.0 474.1,165.0 476.2,165.0 478.3,165.0 480.5,165.0 482.6,165.0 484.7,165.0 486.8,165.0 488.9,165.0 491.0,165.0 493.1,165.0 495.2,165.0 497.3,165.0 499.4,165.0 501.6,165.0 503.7,165.0 505.8,165.0 507.9,165.0 510.0,165.0" fill="none" stroke="#000" stroke-width="4"/>
<line x1="115" x2="170" y1="95" y2="95" stroke="#000" stroke-width="5"/>
<text x="180" y="102" class="legend">NLC</text>
<rect x="630" y="60" width="420" height="280" fill="none" class="axis"/>
<line x1="630.0" x2="630.0" y1="60" y2="340" class="grid"/>
<line x1="630" x2="1050" y1="340.0" y2="340.0" class="grid"/>
<text x="605.0" y="370" class="small">-0.05</text>
<text x="575" y="347.0" class="small">-0.5</text>
<line x1="840.0" x2="840.0" y1="60" y2="340" class="grid"/>
<line x1="630" x2="1050" y1="200.0" y2="200.0" class="grid"/>
<text x="815.0" y="370" class="small">0.04</text>
<text x="575" y="207.0" class="small">0.65</text>
<line x1="1050.0" x2="1050.0" y1="60" y2="340" class="grid"/>
<line x1="630" x2="1050" y1="60.0" y2="60.0" class="grid"/>
<text x="1025.0" y="370" class="small">0.13</text>
<text x="575" y="67.0" class="small">1.8</text>
<text x="785.0" y="400">Time (s)</text>
<text x="560" y="48" transform="rotate(-90 560,48)">Fuselage reaction (N)</text>
<text x="638" y="88" class="small">(b)</text>
<polyline points="513.3,279.1 525.0,279.1 536.7,279.1 548.3,279.1 560.0,279.1 571.7,279.1 583.3,279.1 595.0,279.1 606.7,279.1 618.3,279.1 630.0,279.1 641.7,279.1 653.3,279.1 665.0,279.1 676.7,279.1 688.3,279.1 700.0,279.1 711.7,279.1 723.3,279.1 735.0,279.1 746.7,279.1 758.3,275.8 770.0,266.2 781.7,250.9 793.3,230.9 805.0,207.1 816.7,198.1 828.3,198.1 840.0,198.1 851.7,198.1 863.3,198.1 875.0,198.1 886.7,198.1 898.3,198.1 910.0,198.1 921.7,198.1 933.3,198.1 945.0,198.1 956.7,198.1 968.3,198.1 980.0,198.1 991.7,198.1 1003.3,198.1 1015.0,198.1 1026.7,198.1 1038.3,198.1 1050.0,198.1 1061.7,211.0 1073.3,250.9 1085.0,286.4 1096.7,316.6 1108.3,341.0 1120.0,359.0 1131.7,370.2 1143.3,374.7 1155.0,372.3" fill="none" stroke="#3498db" stroke-width="4"/>
<polyline points="513.3,279.1 525.0,279.1 536.7,279.1 548.3,279.1 560.0,279.1 571.7,279.1 583.3,279.1 595.0,279.1 606.7,279.1 618.3,279.1 630.0,279.1 641.7,279.1 653.3,279.1 665.0,279.1 676.7,279.1 688.3,279.1 700.0,279.1 711.7,279.1 723.3,279.1 735.0,279.1 746.7,279.1 758.3,278.8 770.0,277.7 781.7,275.4 793.3,271.7 805.0,266.5 816.7,260.0 828.3,252.3 840.0,243.8 851.7,234.7 863.3,225.3 875.0,216.0 886.7,207.0 898.3,198.8 910.0,191.5 921.7,185.5 933.3,180.9 945.0,178.0 956.7,176.8 968.3,177.5 980.0,180.0 991.7,184.2 1003.3,190.1 1015.0,197.5 1026.7,206.2 1038.3,215.9 1050.0,226.4 1061.7,237.2 1073.3,248.2 1085.0,258.9 1096.7,269.0 1108.3,278.3 1120.0,286.4 1131.7,293.2 1143.3,298.3 1155.0,300.5" fill="none" stroke="#999" stroke-width="4"/>
<polyline points="513.3,279.1 525.0,279.1 536.7,279.1 548.3,279.1 560.0,279.1 571.7,279.1 583.3,279.1 595.0,279.1 606.7,279.1 618.3,279.1 630.0,279.1 641.7,279.1 653.3,279.1 665.0,279.1 676.7,279.1 688.3,279.1 700.0,279.1 711.7,279.1 723.3,279.1 735.0,279.1 746.7,279.1 758.3,278.8 770.0,277.7 781.7,275.4 793.3,271.7 805.0,267.1 816.7,264.4 828.3,264.0 840.0,264.2 851.7,264.2 863.3,264.0 875.0,263.3 886.7,262.3 898.3,260.7 910.0,258.7 921.7,256.3 933.3,253.3 945.0,250.1 956.7,246.5 968.3,242.8 980.0,239.1 991.7,235.5 1003.3,232.3 1015.0,229.7 1026.7,227.8 1038.3,227.0 1050.0,227.5 1061.7,230.0 1073.3,235.5 1085.0,244.3 1096.7,254.4 1108.3,263.8 1120.0,272.1 1131.7,279.1 1143.3,284.5 1155.0,286.7" fill="none" stroke="#9fc32b" stroke-width="4"/>
<line x1="655" x2="710" y1="95" y2="95" stroke="#3498db" stroke-width="5"/>
<text x="720" y="102" class="legend">Fixed NLC</text>
<line x1="655" x2="710" y1="123" y2="123" stroke="#999" stroke-width="5"/>
<text x="720" y="130" class="legend">Hinged LLC</text>
<line x1="655" x2="710" y1="151" y2="151" stroke="#9fc32b" stroke-width="5"/>
<text x="720" y="158" class="legend">Hinged NLC</text>
<rect x="90" y="470" width="420" height="280" fill="none" class="axis"/>
<line x1="90.0" x2="90.0" y1="470" y2="750" class="grid"/>
<line x1="90" x2="510" y1="750.0" y2="750.0" class="grid"/>
<text x="65.0" y="780" class="small">-0.05</text>
<text x="35" y="757.0" class="small">0.2</text>
<line x1="300.0" x2="300.0" y1="470" y2="750" class="grid"/>
<line x1="90" x2="510" y1="610.0" y2="610.0" class="grid"/>
<text x="275.0" y="780" class="small">0.04</text>
<text x="35" y="617.0" class="small">0.45</text>
<line x1="510.0" x2="510.0" y1="470" y2="750" class="grid"/>
<line x1="90" x2="510" y1="470.0" y2="470.0" class="grid"/>
<text x="485.0" y="780" class="small">0.13</text>
<text x="35" y="477.0" class="small">0.7</text>
<text x="245.0" y="810">Time (s)</text>
<text x="20" y="458" transform="rotate(-90 20,458)">Centre of pressure</text>
<text x="98" y="498" class="small">(c)</text>
<polyline points="-26.7,582.0 -15.0,582.0 -3.3,582.0 8.3,582.0 20.0,582.0 31.7,582.0 43.3,582.0 55.0,582.0 66.7,582.0 78.3,582.0 90.0,582.0 101.7,582.0 113.3,582.0 125.0,582.0 136.7,582.0 148.3,582.0 160.0,582.0 171.7,582.0 183.3,582.0 195.0,582.0 206.7,582.0 218.3,582.0 230.0,582.0 241.7,582.0 253.3,582.0 265.0,582.0 276.7,582.0 288.3,582.0 300.0,582.0 311.7,582.0 323.3,582.0 335.0,582.0 346.7,582.0 358.3,582.0 370.0,582.0 381.7,582.0 393.3,582.0 405.0,582.0 416.7,582.0 428.3,582.0 440.0,582.0 451.7,582.0 463.3,582.0 475.0,582.0 486.7,582.0 498.3,582.0 510.0,582.0 521.7,582.0 533.3,582.0 545.0,582.0 556.7,582.0 568.3,582.0 580.0,582.0 591.7,582.0 603.3,582.0 615.0,582.0" fill="none" stroke="#3498db" stroke-width="4"/>
<polyline points="-26.7,582.0 -15.0,582.0 -3.3,582.0 8.3,582.0 20.0,582.0 31.7,582.0 43.3,582.0 55.0,582.0 66.7,582.0 78.3,582.0 90.0,582.0 101.7,582.0 113.3,582.0 125.0,582.0 136.7,582.0 148.3,582.0 160.0,582.0 171.7,582.0 183.3,582.0 195.0,582.0 206.7,582.0 218.3,582.3 230.0,583.9 241.7,587.1 253.3,591.9 265.0,597.9 276.7,604.6 288.3,611.8 300.0,619.2 311.7,626.6 323.3,633.9 335.0,641.1 346.7,648.0 358.3,654.6 370.0,661.0 381.7,667.0 393.3,672.7 405.0,677.9 416.7,682.6 428.3,686.7 440.0,690.1 451.7,692.5 463.3,693.7 475.0,693.2 486.7,690.8 498.3,685.7 510.0,677.4 521.7,665.4 533.3,649.4 545.0,629.5 556.7,607.0 568.3,583.7 580.0,562.3 591.7,545.2 603.3,534.1 615.0,529.3" fill="none" stroke="#999" stroke-width="4"/>
<polyline points="-26.7,582.0 -15.0,582.0 -3.3,582.0 8.3,582.0 20.0,582.0 31.7,582.0 43.3,582.0 55.0,582.0 66.7,582.0 78.3,582.0 90.0,582.0 101.7,582.0 113.3,582.0 125.0,582.0 136.7,582.0 148.3,582.0 160.0,582.0 171.7,582.0 183.3,582.0 195.0,582.0 206.7,582.0 218.3,582.3 230.0,583.9 241.7,587.1 253.3,591.9 265.0,597.9 276.7,600.5 288.3,600.0 300.0,599.6 311.7,599.4 323.3,599.7 335.0,600.5 346.7,601.8 358.3,603.8 370.0,606.4 381.7,609.8 393.3,613.9 405.0,618.8 416.7,624.4 428.3,630.6 440.0,637.4 451.7,644.4 463.3,651.5 475.0,658.3 486.7,664.4 498.3,669.2 510.0,672.1 521.7,672.0 533.3,667.1 545.0,653.7 556.7,635.8 568.3,616.4 580.0,597.6 591.7,581.5 603.3,569.8 615.0,562.9" fill="none" stroke="#9fc32b" stroke-width="4"/>
<line x1="115" x2="170" y1="505" y2="505" stroke="#3498db" stroke-width="5"/>
<text x="180" y="512" class="legend">Fixed NLC</text>
<line x1="115" x2="170" y1="533" y2="533" stroke="#999" stroke-width="5"/>
<text x="180" y="540" class="legend">Hinged LLC</text>
<line x1="115" x2="170" y1="561" y2="561" stroke="#9fc32b" stroke-width="5"/>
<text x="180" y="568" class="legend">Hinged NLC</text>
<rect x="630" y="470" width="420" height="280" fill="none" class="axis"/>
<line x1="630.0" x2="630.0" y1="470" y2="750" class="grid"/>
<line x1="630" x2="1050" y1="750.0" y2="750.0" class="grid"/>
<text x="605.0" y="780" class="small">-0.05</text>
<text x="575" y="757.0" class="small">-0.2</text>
<line x1="840.0" x2="840.0" y1="470" y2="750" class="grid"/>
<line x1="630" x2="1050" y1="610.0" y2="610.0" class="grid"/>
<text x="815.0" y="780" class="small">0.04</text>
<text x="575" y="617.0" class="small">0.55</text>
<line x1="1050.0" x2="1050.0" y1="470" y2="750" class="grid"/>
<line x1="630" x2="1050" y1="470.0" y2="470.0" class="grid"/>
<text x="1025.0" y="780" class="small">0.13</text>
<text x="575" y="477.0" class="small">1.3</text>
<text x="785.0" y="810">Time (s)</text>
<text x="560" y="458" transform="rotate(-90 560,458)">Rejection (m/s)</text>
<text x="638" y="498" class="small">(d)</text>
<polyline points="513.3,712.7 525.0,712.7 536.7,712.7 548.3,712.7 560.0,712.7 571.7,712.7 583.3,712.7 595.0,712.7 606.7,712.7 618.3,712.7 630.0,712.7 641.7,712.7 653.3,712.7 665.0,712.7 676.7,712.7 688.3,712.7 700.0,712.7 711.7,712.7 723.3,712.7 735.0,712.7 746.7,712.7 758.3,712.6 770.0,712.1 781.7,710.8 793.3,708.4 805.0,704.6 816.7,699.5 828.3,694.3 840.0,689.1 851.7,684.0 863.3,678.8 875.0,673.6 886.7,668.4 898.3,663.2 910.0,658.1 921.7,652.9 933.3,647.7 945.0,642.5 956.7,637.3 968.3,632.2 980.0,627.0 991.7,621.8 1003.3,616.6 1015.0,611.4 1026.7,606.3 1038.3,601.1 1050.0,595.9 1061.7,590.9 1073.3,587.8 1085.0,587.2 1096.7,588.6 1108.3,591.8 1120.0,596.4 1131.7,601.9 1143.3,607.9 1155.0,613.9" fill="none" stroke="#000" stroke-width="4"/>
<polyline points="513.3,712.7 525.0,712.7 536.7,712.7 548.3,712.7 560.0,712.7 571.7,712.7 583.3,712.7 595.0,712.7 606.7,712.7 618.3,712.7 630.0,712.7 641.7,712.7 653.3,712.7 665.0,712.7 676.7,712.7 688.3,712.7 700.0,712.7 711.7,712.7 723.3,712.7 735.0,712.7 746.7,712.7 758.3,712.7 770.0,712.6 781.7,712.3 793.3,711.6 805.0,710.3 816.7,708.5 828.3,707.1 840.0,705.8 851.7,704.7 863.3,703.5 875.0,702.4 886.7,701.2 898.3,699.8 910.0,698.3 921.7,696.6 933.3,694.6 945.0,692.2 956.7,689.6 968.3,686.5 980.0,683.1 991.7,679.4 1003.3,675.3 1015.0,670.9 1026.7,666.3 1038.3,661.4 1050.0,656.4 1061.7,651.2 1073.3,647.8 1085.0,646.4 1096.7,646.7 1108.3,648.3 1120.0,651.1 1131.7,654.8 1143.3,659.0 1155.0,663.5" fill="none" stroke="#9fc32b" stroke-width="4"/>
<polyline points="513.3,712.7 525.0,712.7 536.7,712.7 548.3,712.7 560.0,712.7 571.7,712.7 583.3,712.7 595.0,712.7 606.7,712.7 618.3,712.7 630.0,712.7 641.7,712.7 653.3,712.7 665.0,712.7 676.7,712.7 688.3,712.7 700.0,712.7 711.7,712.7 723.3,712.7 735.0,712.7 746.7,712.7 758.3,712.6 770.0,712.2 781.7,711.4 793.3,710.0 805.0,708.1 816.7,705.7 828.3,702.9 840.0,700.0 851.7,696.9 863.3,693.8 875.0,690.7 886.7,687.8 898.3,685.1 910.0,682.7 921.7,680.6 933.3,679.0 945.0,677.9 956.7,677.3 968.3,677.4 980.0,678.1 991.7,679.3 1003.3,681.1 1015.0,683.4 1026.7,686.1 1038.3,689.1 1050.0,692.3 1061.7,695.6 1073.3,699.0 1085.0,702.3 1096.7,705.4 1108.3,708.2 1120.0,710.7 1131.7,712.7 1143.3,714.3 1155.0,715.4" fill="none" stroke="#4b3f99" stroke-width="4"/>
<line x1="655" x2="710" y1="505" y2="505" stroke="#000" stroke-width="5"/>
<text x="720" y="512" class="legend">Potential</text>
<line x1="655" x2="710" y1="533" y2="533" stroke="#9fc32b" stroke-width="5"/>
<text x="720" y="540" class="legend">Aerodynamic</text>
<line x1="655" x2="710" y1="561" y2="561" stroke="#4b3f99" stroke-width="5"/>
<text x="720" y="568" class="legend">Inertial</text>
</svg>