<svg xmlns="http://www.w3.org/2000/svg" width="1100" height="850" viewBox="0 0 1100 850">
<style>text{font-family:Arial,Helvetica,sans-serif;font-size:22px}.small{font-size:17px}.axis{stroke:#222;stroke-width:2;fill:none}.grid{stroke:#ddd;stroke-width:1}.legend{font-size:20px}</style>
<rect width="100%" height="100%" fill="white"/>
<rect x="90" y="60" width="420" height="280" fill="none" class="axis"/>
<line x1="90.0" x2="90.0" y1="60" y2="340" class="grid"/>
<line x1="90" x2="510" y1="340.0" y2="340.0" class="grid"/>
<text x="65.0" y="370" class="small">-0.05</text>
<text x="35" y="347.0" class="small">-1</text>
<line x1="300.0" x2="300.0" y1="60" y2="340" class="grid"/>
<line x1="90" x2="510" y1="200.0" y2="200.0" class="grid"/>
<text x="275.0" y="370" class="small">0.04</text>
<text x="35" y="207.0" class="small">2</text>
<line x1="510.0" x2="510.0" y1="60" y2="340" class="grid"/>
<line x1="90" x2="510" y1="60.0" y2="60.0" class="grid"/>
<text x="485.0" y="370" class="small">0.13</text>
<text x="35" y="67.0" class="small">5</text>
<text x="245.0" y="400">Time (s)</text>
<text x="20" y="48" transform="rotate(-90 20,48)">Force / reaction (N)</text>
<text x="98" y="88" class="small">(a)</text>
<polygon points="90,340 -26.7,293.3 -15.0,293.3 -3.3,293.3 8.3,293.3 20.0,293.3 31.7,293.3 43.3,293.3 55.0,293.3 66.7,293.3 78.3,293.3 90.0,293.3 101.7,293.3 113.3,293.3 125.0,293.3 136.7,293.3 148.3,293.3 160.0,293.3 171.7,293.3 183.3,293.3 195.0,293.3 206.7,293.3 218.3,291.7 230.0,286.9 241.7,279.0 253.3,268.3 265.0,255.2 276.7,240.0 288.3,223.3 300.0,205.6 311.7,187.5 323.3,169.4 335.0,152.2 346.7,136.2 358.3,122.0 370.0,110.0 381.7,100.7 393.3,94.3 405.0,91.1 416.7,91.1 428.3,94.3 440.0,100.7 451.7,110.0 463.3,122.0 475.0,136.2 486.7,152.2 498.3,169.4 510.0,187.5 521.7,205.6 533.3,223.3 545.0,240.0 556.7,255.2 568.3,268.3 580.0,279.0 591.7,286.9 603.3,291.7 615.0,293.3 510,340" fill="#d7d7d7" opacity="0.75"/>
<polyline points="-26.7,293.3 -15.0,293.3 -3.3,293.3 8.3,293.3 20.0,293.3 31.7,293.3 43.3,293.3 55.0,293.3 66.7,293.3 78.3,293.3 90.0,293.3 101.7,293.3 113.3,293.3 125.0,293.3 136.7,293.3 148.3,293.3 160.0,293.3 171.7,293.3 183.3,293.3 195.0,293.3 206.7,293.3 218.3,291.7 230.0,286.9 241.7,279.0 253.3,268.3 265.0,255.2 276.7,240.0 288.3,223.3 300.0,205.6 311.7,187.5 323.3,169.4 335.0,152.2 346.7,136.2 358.3,122.0 370.0,110.0 381.7,100.7 393.3,94.3 405.0,91.1 416.7,91.1 428.3,94.3 440.0,100.7 451.7,110.0 463.3,122.0 475.0,136.2 486.7,152.2 498.3,169.4 510.0,187.5 521.7,205.6 533.3,223.3 545.0,240.0 556.7,255.2 568.3,268.3 580.0,279.0 591.7,286.9 603.3,291.7 615.0,293.3" fill="none" stroke="#000" stroke-width="5"/>
<polyline points="-26.7,293.3 -15.0,293.3 -3.3,293.3 8.3,293.3 20.0,293.3 31.7,293.3 43.3,293.3 55.0,293.3 66.7,293.3 78.3,293.3 90.0,293.3 101.7,293.3 113.3,293.3 125.0,293.3 136.7,293.3 148.3,293.3 160.0,293.3 171.7,293.3 183.3,293.3 195.0,293.3 206.7,293.3 218.3,291.7 230.0,287.1 241.7,279.8 253.3,270.2 265.0,258.8 276.7,246.1 288.3,232.7 300.0,219.0 311.7,205.8 323.3,193.4 335.0,182.5 346.7,173.5 358.3,166.7 370.0,162.6 381.7,161.2 393.3,162.7 405.0,167.2 416.7,174.6 428.3,184.8 440.0,197.3 451.7,212.0 463.3,228.4 475.0,246.0 486.7,264.3 498.3,282.7 510.0,300.8 521.7,318.0 533.3,333.7 545.0,347.6 556.7,359.1 568.3,368.0 580.0,374.0 591.7,376.9 603.3,376.7 615.0,373.4" fill="none" stroke="#3498db" stroke-width="3"/>
<polyline points="-26.7,293.3 -15.0,293.3 -3.3,293.3 8.3,293.3 20.0,293.3 31.7,293.3 43.3,293.3 55.0,293.3 66.7,293.3 78.3,293.3 90.0,293.3 101.7,293.3 113.3,293.3 125.0,293.3 136.7,293.3 148.3,293.3 160.0,293.3 171.7,293.3 183.3,293.3 195.0,293.3 206.7,293.3 218.3,291.9 230.0,288.4 241.7,283.4 253.3,277.5 265.0,271.2 276.7,264.6 288.3,258.1 300.0,251.9 311.7,246.3 323.3,241.5 335.0,237.6 346.7,234.8 358.3,233.1 370.0,232.7 381.7,233.6 393.3,235.7 405.0,239.0 416.7,243.4 428.3,248.8 440.0,255.0 451.7,261.8 463.3,269.1 475.0,276.5 486.7,283.9 498.3,291.0 510.0,297.6 521.7,303.5 533.3,308.6 545.0,312.7 556.7,315.6 568.3,317.2 580.0,317.6 591.7,316.7 603.3,314.6 615.0,311.3" fill="none" stroke="#9fc32b" stroke-width="3"/>
<polyline points="-26.7,293.3 -15.0,293.3 -3.3,293.3 8.3,293.3 20.0,293.3 31.7,293.3 43.3,293.3 55.0,293.3 66.7,293.3 78.3,293.3 90.0,293.3 101.7,293.3 113.3,293.3 125.0,293.3 136.7,293.3 148.3,293.3 160.0,293.3 171.7,293.3 183.3,293.3 195.0,293.3 206.7,293.3 218.3,293.2 230.0,292.8 241.7,291.9 253.3,290.5 265.0,288.5 276.7,286.0 288.3,283.1 300.0,279.8 311.7,276.3 323.3,272.7 335.0,269.1 346.7,265.7 358.3,262.5 370.0,259.7 381.7,257.4 393.3,255.7 405.0,254.6 416.7,254.1 428.3,254.4 440.0,255.3 451.7,256.9 463.3,259.2 475.0,262.1 486.7,265.4 498.3,269.1 510.0,273.1 521.7,277.3 533.3,281.5 545.0,285.6 556.7,289.5 568.3,293.0 580.0,296.1 591.7,298.7 603.3,300.7 615.0,301.5" fill="none" stroke="#9fc32b" stroke-width="6"/>
<line x1="115" x2="170" y1="95" y2="95" stroke="#000" stroke-width="5"/>
<text x="180" y="102" class="legend">Immobile</text>
<line x1="115" x2="170" y1="123" y2="123" stroke="#3498db" stroke-width="5"/>
<text x="180" y="130" class="legend">Fixed</text>
<line x1="115" x2="170" y1="151" y2="151" stroke="#9fc32b" stroke-width="5"/>
<text x="180" y="158" class="legend">Hinged force</text>
<line x1="115" x2="170" y1="179" y2="179" stroke="#9fc32b" stroke-width="5"/>
<text x="180" y="186" class="legend">Hinged reaction</text>
<rect x="630" y="60" width="420" height="280" fill="none" class="axis"/>
<line x1="630.0" x2="630.0" y1="60" y2="340" class="grid"/>
<line x1="630" x2="1050" y1="340.0" y2="340.0" class="grid"/>
<text x="605.0" y="370" class="small">-0.05</text>
<text x="575" y="347.0" class="small">-0.2</text>
<line x1="840.0" x2="840.0" y1="60" y2="340" class="grid"/>
<line x1="630" x2="1050" y1="200.0" y2="200.0" class="grid"/>
<text x="815.0" y="370" class="small">0.04</text>
<text x="575" y="207.0" class="small">0.65</text>
<line x1="1050.0" x2="1050.0" y1="60" y2="340" class="grid"/>
<line x1="630" x2="1050" y1="60.0" y2="60.0" class="grid"/>
<text x="1025.0" y="370" class="small">0.13</text>
<text x="575" y="67.0" class="small">1.5</text>
<text x="785.0" y="400">Time (s)</text>
<text x="560" y="48" transform="rotate(-90 560,48)">Mass velocity (m/s)</text>
<text x="638" y="88" class="small">(b)</text>
<polyline points="513.3,307.1 525.0,307.1 536.7,307.1 548.3,307.1 560.0,307.1 571.7,307.1 583.3,307.1 595.0,307.1 606.7,307.1 618.3,307.1 630.0,307.1 641.7,307.1 653.3,307.1 665.0,307.1 676.7,307.1 688.3,307.1 700.0,307.1 711.7,307.1 723.3,307.1 735.0,307.1 746.7,307.1 758.3,307.0 770.0,306.6 781.7,305.4 793.3,303.3 805.0,299.9 816.7,295.1 828.3,288.8 840.0,280.9 851.7,271.3 863.3,260.3 875.0,247.9 886.7,234.3 898.3,219.8 910.0,204.6 921.7,189.1 933.3,173.6 945.0,158.5 956.7,144.1 968.3,130.7 980.0,118.6 991.7,108.2 1003.3,99.5 1015.0,92.9 1026.7,88.4 1038.3,86.1 1050.0,85.9 1061.7,87.8 1073.3,91.7 1085.0,97.3 1096.7,104.3 1108.3,112.6 1120.0,121.8 1131.7,131.5 1143.3,141.3 1155.0,151.0" fill="none" stroke="#3498db" stroke-width="4"/>
<polyline points="513.3,307.1 525.0,307.1 536.7,307.1 548.3,307.1 560.0,307.1 571.7,307.1 583.3,307.1 595.0,307.1 606.7,307.1 618.3,307.1 630.0,307.1 641.7,307.1 653.3,307.1 665.0,307.1 676.7,307.1 688.3,307.1 700.0,307.1 711.7,307.1 723.3,307.1 735.0,307.1 746.7,307.1 758.3,307.0 770.0,306.6 781.7,305.8 793.3,304.3 805.0,302.0 816.7,299.0 828.3,295.3 840.0,290.8 851.7,285.6 863.3,279.8 875.0,273.5 886.7,266.8 898.3,259.9 910.0,253.0 921.7,246.1 933.3,239.4 945.0,233.2 956.7,227.4 968.3,222.3 980.0,217.8 991.7,214.0 1003.3,211.0 1015.0,208.7 1026.7,207.1 1038.3,206.3 1050.0,206.1 1061.7,206.5 1073.3,207.5 1085.0,209.0 1096.7,210.9 1108.3,213.1 1120.0,215.4 1131.7,217.8 1143.3,220.2 1155.0,222.4" fill="none" stroke="#9fc32b" stroke-width="4"/>
<polyline points="513.3,307.1 525.0,307.1 536.7,307.1 548.3,307.1 560.0,307.1 571.7,307.1 583.3,307.1 595.0,307.1 606.7,307.1 618.3,307.1 630.0,307.1 641.7,307.1 653.3,307.1 665.0,307.1 676.7,307.1 688.3,307.1 700.0,307.1 711.7,307.1 723.3,307.1 735.0,307.1 746.7,307.1 758.3,306.8 770.0,305.1 781.7,301.3 793.3,294.9 805.0,286.0 816.7,274.5 828.3,260.8 840.0,245.2 851.7,228.2 863.3,210.2 875.0,192.0 886.7,173.9 898.3,156.7 910.0,140.9 921.7,127.0 933.3,115.6 945.0,106.8 956.7,101.1 968.3,98.3 980.0,98.6 991.7,101.7 1003.3,107.3 1015.0,115.2 1026.7,124.9 1038.3,136.1 1050.0,148.3 1061.7,161.2 1073.3,174.4 1085.0,187.5 1096.7,200.3 1108.3,212.4 1120.0,223.4 1131.7,233.1 1143.3,241.0 1155.0,247.0" fill="none" stroke="#9fc32b" stroke-width="4" stroke-dasharray="8 6"/>
<polyline points="513.3,307.1 525.0,307.1 536.7,307.1 548.3,307.1 560.0,307.1 571.7,307.1 583.3,307.1 595.0,307.1 606.7,307.1 618.3,307.1 630.0,307.1 641.7,307.1 653.3,307.1 665.0,307.1 676.7,307.1 688.3,307.1 700.0,307.1 711.7,307.1 723.3,307.1 735.0,307.1 746.7,307.1 758.3,307.1 770.0,307.0 781.7,306.9 793.3,306.6 805.0,306.1 816.7,305.2 828.3,303.9 840.0,302.2 851.7,299.9 863.3,297.2 875.0,293.9 886.7,290.0 898.3,285.7 910.0,281.0 921.7,275.8 933.3,270.4 945.0,264.8 956.7,259.0 968.3,253.2 980.0,247.6 991.7,242.1 1003.3,236.9 1015.0,232.0 1026.7,227.7 1038.3,223.8 1050.0,220.5 1061.7,217.9 1073.3,215.8 1085.0,214.4 1096.7,213.5 1108.3,213.2 1120.0,213.4 1131.7,214.0 1143.3,215.0 1155.0,216.2" fill="none" stroke="#9fc32b" stroke-width="4" stroke-dasharray="8 6"/>
<line x1="655" x2="710" y1="95" y2="95" stroke="#3498db" stroke-width="5"/>
<text x="720" y="102" class="legend">Fixed</text>
<line x1="655" x2="710" y1="123" y2="123" stroke="#9fc32b" stroke-width="5"/>
<text x="720" y="130" class="legend">Hinged</text>
<line x1="655" x2="710" y1="151" y2="151" stroke="#9fc32b" stroke-width="5" stroke-dasharray="8 6"/>
<text x="720" y="158" class="legend">Wings</text>
<line x1="655" x2="710" y1="179" y2="179" stroke="#9fc32b" stroke-width="5" stroke-dasharray="8 6"/>
<text x="720" y="186" class="legend">Body</text>
<rect x="90" y="470" width="420" height="280" fill="none" class="axis"/>
<line x1="90.0" x2="90.0" y1="470" y2="750" class="grid"/>
<line x1="90" x2="510" y1="750.0" y2="750.0" class="grid"/>
<text x="65.0" y="780" class="small">-0.05</text>
<text x="35" y="757.0" class="small">0</text>
<line x1="300.0" x2="300.0" y1="470" y2="750" class="grid"/>
<line x1="90" x2="510" y1="610.0" y2="610.0" class="grid"/>
<text x="275.0" y="780" class="small">0.04</text>
<text x="35" y="617.0" class="small">0.5</text>
<line x1="510.0" x2="510.0" y1="470" y2="750" class="grid"/>
<line x1="90" x2="510" y1="470.0" y2="470.0" class="grid"/>
<text x="485.0" y="780" class="small">0.13</text>
<text x="35" y="477.0" class="small">1</text>
<text x="245.0" y="810">Time (s)</text>
<text x="20" y="458" transform="rotate(-90 20,458)">Centre of pressure</text>
<text x="98" y="498" class="small">(c)</text>
<polyline points="-26.7,610.0 -15.0,610.0 -3.3,610.0 8.3,610.0 20.0,610.0 31.7,610.0 43.3,610.0 55.0,610.0 66.7,610.0 78.3,610.0 90.0,610.0 101.7,610.0 113.3,610.0 125.0,610.0 136.7,610.0 148.3,610.0 160.0,610.0 171.7,610.0 183.3,610.0 195.0,610.0 206.7,610.0 218.3,610.0 230.0,610.0 241.7,610.0 253.3,610.0 265.0,610.0 276.7,610.0 288.3,610.0 300.0,610.0 311.7,610.0 323.3,610.0 335.0,610.0 346.7,610.0 358.3,610.0 370.0,610.0 381.7,610.0 393.3,610.0 405.0,610.0 416.7,610.0 428.3,610.0 440.0,610.0 451.7,610.0 463.3,610.0 475.0,610.0 486.7,610.0 498.3,610.0 510.0,610.0 521.7,610.0 533.3,610.0 545.0,610.0 556.7,610.0 568.3,610.0 580.0,610.0 591.7,610.0 603.3,610.0 615.0,610.0" fill="none" stroke="#3498db" stroke-width="4"/>
<polyline points="-26.7,610.0 -15.0,610.0 -3.3,610.0 8.3,610.0 20.0,610.0 31.7,610.0 43.3,610.0 55.0,610.0 66.7,610.0 78.3,610.0 90.0,610.0 101.7,610.0 113.3,610.0 125.0,610.0 136.7,610.0 148.3,610.0 160.0,610.0 171.7,610.0 183.3,610.0 195.0,610.0 206.7,610.0 218.3,610.1 230.0,610.9 241.7,612.6 253.3,615.0 265.0,617.9 276.7,621.3 288.3,624.9 300.0,628.6 311.7,632.3 323.3,636.0 335.0,639.5 346.7,643.0 358.3,646.3 370.0,649.5 381.7,652.5 393.3,655.3 405.0,658.0 416.7,660.3 428.3,662.4 440.0,664.1 451.7,665.3 463.3,665.8 475.0,665.6 486.7,664.4 498.3,661.8 510.0,657.7 521.7,651.7 533.3,643.7 545.0,633.8 556.7,622.5 568.3,610.8 580.0,600.1 591.7,591.6 603.3,586.1 615.0,583.7" fill="none" stroke="#9fc32b" stroke-width="4"/>
<line x1="115" x2="170" y1="505" y2="505" stroke="#3498db" stroke-width="5"/>
<text x="180" y="512" class="legend">Fixed</text>
<line x1="115" x2="170" y1="533" y2="533" stroke="#9fc32b" stroke-width="5"/>
<text x="180" y="540" class="legend">Hinged</text>
<rect x="630" y="470" width="420" height="280" fill="none" class="axis"/>
<line x1="630.0" x2="630.0" y1="470" y2="750" class="grid"/>
<line x1="630" x2="1050" y1="750.0" y2="750.0" class="grid"/>
<text x="605.0" y="780" class="small">-0.05</text>
<text x="575" y="757.0" class="small">-0.2</text>
<line x1="840.0" x2="840.0" y1="470" y2="750" class="grid"/>
<line x1="630" x2="1050" y1="610.0" y2="610.0" class="grid"/>
<text x="815.0" y="780" class="small">0.04</text>
<text x="575" y="617.0" class="small">0.7</text>
<line x1="1050.0" x2="1050.0" y1="470" y2="750" class="grid"/>
<line x1="630" x2="1050" y1="470.0" y2="470.0" class="grid"/>
<text x="1025.0" y="780" class="small">0.13</text>
<text x="575" y="477.0" class="small">1.6</text>
<text x="785.0" y="810">Time (s)</text>
<text x="560" y="458" transform="rotate(-90 560,458)">Rejection (m/s)</text>
<text x="638" y="498" class="small">(d)</text>
<polyline points="513.3,718.9 525.0,718.9 536.7,718.9 548.3,718.9 560.0,718.9 571.7,718.9 583.3,718.9 595.0,718.9 606.7,718.9 618.3,718.9 630.0,718.9 641.7,718.9 653.3,718.9 665.0,718.9 676.7,718.9 688.3,718.9 700.0,718.9 711.7,718.9 723.3,718.9 735.0,718.9 746.7,718.9 758.3,718.8 770.0,718.4 781.7,717.4 793.3,715.3 805.0,712.2 816.7,707.6 828.3,701.6 840.0,694.1 851.7,685.1 863.3,674.7 875.0,663.0 886.7,650.2 898.3,636.4 910.0,622.1 921.7,607.5 933.3,592.9 945.0,578.6 956.7,564.9 968.3,552.3 980.0,540.9 991.7,531.0 1003.3,522.9 1015.0,516.6 1026.7,512.4 1038.3,510.2 1050.0,510.0 1061.7,511.8 1073.3,515.5 1085.0,520.7 1096.7,527.4 1108.3,535.3 1120.0,543.9 1131.7,553.1 1143.3,562.4 1155.0,571.5" fill="none" stroke="#000" stroke-width="4"/>
<polyline points="513.3,718.9 525.0,718.9 536.7,718.9 548.3,718.9 560.0,718.9 571.7,718.9 583.3,718.9 595.0,718.9 606.7,718.9 618.3,718.9 630.0,718.9 641.7,718.9 653.3,718.9 665.0,718.9 676.7,718.9 688.3,718.9 700.0,718.9 711.7,718.9 723.3,718.9 735.0,718.9 746.7,718.9 758.3,718.9 770.0,718.8 781.7,718.6 793.3,718.0 805.0,716.9 816.7,715.2 828.3,712.8 840.0,709.5 851.7,705.4 863.3,700.5 875.0,694.7 886.7,688.2 898.3,681.0 910.0,673.2 921.7,665.1 933.3,656.7 945.0,648.3 956.7,640.2 968.3,632.4 980.0,625.2 991.7,618.9 1003.3,613.7 1015.0,609.6 1026.7,606.8 1038.3,605.4 1050.0,605.4 1061.7,606.8 1073.3,609.5 1085.0,613.4 1096.7,618.3 1108.3,624.0 1120.0,630.5 1131.7,637.3 1143.3,644.4 1155.0,651.5" fill="none" stroke="#9fc32b" stroke-width="4"/>
<polyline points="513.3,718.9 525.0,718.9 536.7,718.9 548.3,718.9 560.0,718.9 571.7,718.9 583.3,718.9 595.0,718.9 606.7,718.9 618.3,718.9 630.0,718.9 641.7,718.9 653.3,718.9 665.0,718.9 676.7,718.9 688.3,718.9 700.0,718.9 711.7,718.9 723.3,718.9 735.0,718.9 746.7,718.9 758.3,718.8 770.0,718.5 781.7,717.8 793.3,716.7 805.0,715.1 816.7,713.1 828.3,710.7 840.0,708.1 851.7,705.3 863.3,702.5 875.0,699.6 886.7,697.0 898.3,694.5 910.0,692.4 921.7,690.8 933.3,689.6 945.0,689.1 956.7,689.1 968.3,689.6 980.0,690.8 991.7,692.4 1003.3,694.4 1015.0,696.8 1026.7,699.5 1038.3,702.3 1050.0,705.2 1061.7,708.2 1073.3,711.1 1085.0,713.8 1096.7,716.4 1108.3,718.7 1120.0,720.8 1131.7,722.5 1143.3,723.8 1155.0,724.7" fill="none" stroke="#4b3f99" stroke-width="4"/>
<line x1="655" x2="710" y1="505" y2="505" stroke="#000" stroke-width="5"/>
<text x="720" y="512" class="legend">Potential</text>
<line x1="655" x2="710" y1="533" y2="533" stroke="#9fc32b" stroke-width="5"/>
<text x="720" y="540" class="legend">Aerodynamic</text>
<line x1="655" x2="710" y1="561" y2="561" stroke="#4b3f99" stroke-width="5"/>
<text x="720" y="568" class="legend">Inertial</text>
</svg>