<svg xmlns="http://www.w3.org/2000/svg" width="1140" height="890" viewBox="0 0 1140 890">
<style>text{font-family:Arial,Helvetica,sans-serif;font-size:20px}.small{font-size:15px}.axis{stroke:#222;stroke-width:2;fill:none}.grid{stroke:#ddd;stroke-width:1}.legend{font-size:17px}.ylabel{font-size:18px;font-weight:600}</style>
<rect width="100%" height="100%" fill="white"/>
<defs>
<clipPath id="clip-0"><rect x="90" y="85" width="460" height="300"/></clipPath>
<clipPath id="clip-1"><rect x="635" y="85" width="460" height="300"/></clipPath>
<clipPath id="clip-2"><rect x="90" y="510" width="460" height="300"/></clipPath>
<clipPath id="clip-3"><rect x="635" y="510" width="460" height="300"/></clipPath>
</defs>
<rect x="90" y="85" width="460" height="300" fill="#fbfbfb" stroke="none"/>
<line x1="90.0" x2="90.0" y1="85" y2="385" class="grid"/>
<line x1="90" x2="550" y1="385.0" y2="385.0" class="grid"/>
<text x="90.0" y="412" class="small" text-anchor="middle">0</text>
<text x="74" y="390.0" class="small" text-anchor="end">0</text>
<line x1="320.0" x2="320.0" y1="85" y2="385" class="grid"/>
<line x1="90" x2="550" y1="235.0" y2="235.0" class="grid"/>
<text x="320.0" y="412" class="small" text-anchor="middle">12</text>
<text x="74" y="240.0" class="small" text-anchor="end">0.8</text>
<line x1="550.0" x2="550.0" y1="85" y2="385" class="grid"/>
<line x1="90" x2="550" y1="85.0" y2="85.0" class="grid"/>
<text x="550.0" y="412" class="small" text-anchor="middle">25</text>
<text x="74" y="90.0" class="small" text-anchor="end">1.6</text>
<rect x="90" y="85" width="460" height="300" fill="none" class="axis"/>
<text x="320.0" y="443" text-anchor="middle">AoA (deg)</text>
<text x="90" y="53" class="ylabel">Lift coefficient</text>
<text x="98" y="113" class="small">(a)</text>
<g clip-path="url(#clip-0)">
<polyline points="90.0,385.0 92.3,382.4 94.6,379.8 96.9,377.3 99.2,374.7 101.6,372.1 103.9,369.5 106.2,366.9 108.5,364.3 110.8,361.8 113.1,359.2 115.4,356.6 117.7,354.0 120.1,351.4 122.4,348.8 124.7,346.3 127.0,343.7 129.3,341.1 131.6,338.5 133.9,335.9 136.2,333.3 138.5,330.8 140.9,328.2 143.2,325.6 145.5,323.0 147.8,320.4 150.1,317.8 152.4,315.3 154.7,312.7 157.0,310.1 159.3,307.5 161.7,304.9 164.0,302.3 166.3,299.8 168.6,297.2 170.9,294.6 173.2,292.0 175.5,289.4 177.8,286.8 180.2,284.3 182.5,281.7 184.8,279.1 187.1,276.5 189.4,273.9 191.7,271.3 194.0,268.8 196.3,266.2 198.6,263.6 201.0,261.0 203.3,258.4 205.6,255.8 207.9,253.3 210.2,250.7 212.5,248.1 214.8,245.5 217.1,242.9 219.4,240.3 221.8,237.8 224.1,235.2 226.4,232.6 228.7,230.0 231.0,227.4 233.3,224.8 235.6,222.3 237.9,219.7 240.3,217.1 242.6,214.5 244.9,211.9 247.2,209.3 249.5,206.8 251.8,204.2 254.1,201.6 256.4,199.0 258.7,197.5 261.1,197.5 263.4,197.5 265.7,197.5 268.0,197.5 270.3,197.5 272.6,197.5 274.9,197.5 277.2,197.5 279.5,197.5 281.9,197.5 284.2,197.5 286.5,197.5 288.8,197.5 291.1,197.5 293.4,197.5 295.7,197.5 298.0,197.5 300.4,197.5 302.7,197.5 305.0,197.5 307.3,197.5 309.6,197.5 311.9,197.5 314.2,197.5 316.5,197.5 318.8,197.5 321.2,197.5 323.5,197.5 325.8,197.5 328.1,197.5 330.4,197.5 332.7,197.5 335.0,197.5 337.3,197.5 339.6,197.5 342.0,197.5 344.3,197.5 346.6,197.5 348.9,197.5 351.2,197.5 353.5,197.5 355.8,197.5 358.1,197.5 360.5,197.5 362.8,197.5 365.1,197.5 367.4,197.5 369.7,197.5 372.0,197.5 374.3,197.5 376.6,197.5 378.9,197.5 381.3,197.5 383.6,197.5 385.9,197.5 388.2,197.5 390.5,197.5 392.8,197.5 395.1,197.5 397.4,197.5 399.7,197.5 402.1,197.5 404.4,197.5 406.7,197.5 409.0,197.5 411.3,197.5 413.6,197.5 415.9,197.5 418.2,197.5 420.6,197.5 422.9,197.5 425.2,197.5 427.5,197.5 429.8,197.5 432.1,197.5 434.4,197.5 436.7,197.5 439.0,197.5 441.4,197.5 443.7,197.5 446.0,197.5 448.3,197.5 450.6,197.5 452.9,197.5 455.2,197.5 457.5,197.5 459.8,197.5 462.2,197.5 464.5,197.5 466.8,197.5 469.1,197.5 471.4,197.5 473.7,197.5 476.0,197.5 478.3,197.5 480.7,197.5 483.0,197.5 485.3,197.5 487.6,197.5 489.9,197.5 492.2,197.5 494.5,197.5 496.8,197.5 499.1,197.5 501.5,197.5 503.8,197.5 506.1,197.5 508.4,197.5 510.7,197.5 513.0,197.5 515.3,197.5 517.6,197.5 519.9,197.5 522.3,197.5 524.6,197.5 526.9,197.5 529.2,197.5 531.5,197.5 533.8,197.5 536.1,197.5 538.4,197.5 540.8,197.5 543.1,197.5 545.4,197.5 547.7,197.5 550.0,197.5" fill="none" stroke="#000" stroke-width="4"/>
</g>
<line x1="115" x2="170" y1="120" y2="120" stroke="#000" stroke-width="5"/>
<text x="180" y="127" class="legend">NLC</text>
<rect x="635" y="85" width="460" height="300" fill="#fbfbfb" stroke="none"/>
<line x1="635.0" x2="635.0" y1="85" y2="385" class="grid"/>
<line x1="635" x2="1095" y1="385.0" y2="385.0" class="grid"/>
<text x="635.0" y="412" class="small" text-anchor="middle">-0.05</text>
<text x="619" y="390.0" class="small" text-anchor="end">-0.5</text>
<line x1="865.0" x2="865.0" y1="85" y2="385" class="grid"/>
<line x1="635" x2="1095" y1="235.0" y2="235.0" class="grid"/>
<text x="865.0" y="412" class="small" text-anchor="middle">0.04</text>
<text x="619" y="240.0" class="small" text-anchor="end">0.65</text>
<line x1="1095.0" x2="1095.0" y1="85" y2="385" class="grid"/>
<line x1="635" x2="1095" y1="85.0" y2="85.0" class="grid"/>
<text x="1095.0" y="412" class="small" text-anchor="middle">0.13</text>
<text x="619" y="90.0" class="small" text-anchor="end">1.8</text>
<rect x="635" y="85" width="460" height="300" fill="none" class="axis"/>
<text x="865.0" y="443" text-anchor="middle">Time (s)</text>
<text x="635" y="53" class="ylabel">Fuselage reaction (N)</text>
<text x="643" y="113" class="small">(b)</text>
<g clip-path="url(#clip-1)">
<polyline points="507.2,319.8 520.0,319.8 532.8,319.8 545.6,319.8 558.3,319.8 571.1,319.8 583.9,319.8 596.7,319.8 609.4,319.8 622.2,319.8 635.0,319.8 647.8,319.8 660.6,319.8 673.3,319.8 686.1,319.8 698.9,319.8 711.7,319.8 724.4,319.8 737.2,319.8 750.0,319.8 762.8,319.8 775.6,316.2 788.3,305.9 801.1,289.6 813.9,268.1 826.7,242.6 839.4,232.9 852.2,232.9 865.0,232.9 877.8,232.9 890.6,232.9 903.3,232.9 916.1,232.9 928.9,232.9 941.7,232.9 954.4,232.9 967.2,232.9 980.0,232.9 992.8,232.9 1005.6,232.9 1018.3,232.9 1031.1,232.9 1043.9,232.9 1056.7,232.9 1069.4,232.9 1082.2,232.9 1095.0,232.9 1107.8,246.8 1120.6,289.5 1133.3,327.5 1146.1,360.0 1158.9,386.1 1171.7,405.3 1184.4,417.4 1197.2,422.1 1210.0,419.6" fill="none" stroke="#3498db" stroke-width="4"/>
<polyline points="507.2,319.8 520.0,319.8 532.8,319.8 545.6,319.8 558.3,319.8 571.1,319.8 583.9,319.8 596.7,319.8 609.4,319.8 622.2,319.8 635.0,319.8 647.8,319.8 660.6,319.8 673.3,319.8 686.1,319.8 698.9,319.8 711.7,319.8 724.4,319.8 737.2,319.8 750.0,319.8 762.8,319.8 775.6,319.4 788.3,318.3 801.1,315.8 813.9,311.8 826.7,306.2 839.4,299.3 852.2,291.1 865.0,282.0 877.8,272.2 890.6,262.1 903.3,252.1 916.1,242.6 928.9,233.7 941.7,225.9 954.4,219.4 967.2,214.6 980.0,211.4 992.8,210.2 1005.6,210.9 1018.3,213.5 1031.1,218.1 1043.9,224.4 1056.7,232.4 1069.4,241.7 1082.2,252.1 1095.0,263.2 1107.8,274.9 1120.6,286.6 1133.3,298.1 1146.1,308.9 1158.9,318.9 1171.7,327.6 1184.4,334.8 1197.2,340.4 1210.0,342.7" fill="none" stroke="#999" stroke-width="4"/>
<polyline points="507.2,319.8 520.0,319.8 532.8,319.8 545.6,319.8 558.3,319.8 571.1,319.8 583.9,319.8 596.7,319.8 609.4,319.8 622.2,319.8 635.0,319.8 647.8,319.8 660.6,319.8 673.3,319.8 686.1,319.8 698.9,319.8 711.7,319.8 724.4,319.8 737.2,319.8 750.0,319.8 762.8,319.8 775.6,319.4 788.3,318.3 801.1,315.8 813.9,311.8 826.7,306.9 839.4,304.0 852.2,303.6 865.0,303.8 877.8,303.8 890.6,303.5 903.3,302.9 916.1,301.7 928.9,300.1 941.7,297.9 954.4,295.3 967.2,292.2 980.0,288.6 992.8,284.8 1005.6,280.8 1018.3,276.9 1031.1,273.1 1043.9,269.6 1056.7,266.8 1069.4,264.8 1082.2,263.9 1095.0,264.5 1107.8,267.2 1120.6,273.0 1133.3,282.5 1146.1,293.3 1158.9,303.4 1171.7,312.3 1184.4,319.7 1197.2,325.5 1210.0,327.9" fill="none" stroke="#9fc32b" stroke-width="4"/>
</g>
<line x1="660" x2="715" y1="120" y2="120" stroke="#3498db" stroke-width="5"/>
<text x="725" y="127" class="legend">Fixed NLC</text>
<line x1="660" x2="715" y1="148" y2="148" stroke="#999" stroke-width="5"/>
<text x="725" y="155" class="legend">Hinged LLC</text>
<line x1="660" x2="715" y1="176" y2="176" stroke="#9fc32b" stroke-width="5"/>
<text x="725" y="183" class="legend">Hinged NLC</text>
<rect x="90" y="510" width="460" height="300" fill="#fbfbfb" stroke="none"/>
<line x1="90.0" x2="90.0" y1="510" y2="810" class="grid"/>
<line x1="90" x2="550" y1="810.0" y2="810.0" class="grid"/>
<text x="90.0" y="837" class="small" text-anchor="middle">-0.05</text>
<text x="74" y="815.0" class="small" text-anchor="end">0.2</text>
<line x1="320.0" x2="320.0" y1="510" y2="810" class="grid"/>
<line x1="90" x2="550" y1="660.0" y2="660.0" class="grid"/>
<text x="320.0" y="837" class="small" text-anchor="middle">0.04</text>
<text x="74" y="665.0" class="small" text-anchor="end">0.45</text>
<line x1="550.0" x2="550.0" y1="510" y2="810" class="grid"/>
<line x1="90" x2="550" y1="510.0" y2="510.0" class="grid"/>
<text x="550.0" y="837" class="small" text-anchor="middle">0.13</text>
<text x="74" y="515.0" class="small" text-anchor="end">0.7</text>
<rect x="90" y="510" width="460" height="300" fill="none" class="axis"/>
<text x="320.0" y="868" text-anchor="middle">Time (s)</text>
<text x="90" y="478" class="ylabel">Centre of pressure</text>
<text x="98" y="538" class="small">(c)</text>
<g clip-path="url(#clip-2)">
<polyline points="-37.8,630.0 -25.0,630.0 -12.2,630.0 0.6,630.0 13.3,630.0 26.1,630.0 38.9,630.0 51.7,630.0 64.4,630.0 77.2,630.0 90.0,630.0 102.8,630.0 115.6,630.0 128.3,630.0 141.1,630.0 153.9,630.0 166.7,630.0 179.4,630.0 192.2,630.0 205.0,630.0 217.8,630.0 230.6,630.0 243.3,630.0 256.1,630.0 268.9,630.0 281.7,630.0 294.4,630.0 307.2,630.0 320.0,630.0 332.8,630.0 345.6,630.0 358.3,630.0 371.1,630.0 383.9,630.0 396.7,630.0 409.4,630.0 422.2,630.0 435.0,630.0 447.8,630.0 460.6,630.0 473.3,630.0 486.1,630.0 498.9,630.0 511.7,630.0 524.4,630.0 537.2,630.0 550.0,630.0 562.8,630.0 575.6,630.0 588.3,630.0 601.1,630.0 613.9,630.0 626.7,630.0 639.4,630.0 652.2,630.0 665.0,630.0" fill="none" stroke="#3498db" stroke-width="4"/>
<polyline points="-37.8,630.0 -25.0,630.0 -12.2,630.0 0.6,630.0 13.3,630.0 26.1,630.0 38.9,630.0 51.7,630.0 64.4,630.0 77.2,630.0 90.0,630.0 102.8,630.0 115.6,630.0 128.3,630.0 141.1,630.0 153.9,630.0 166.7,630.0 179.4,630.0 192.2,630.0 205.0,630.0 217.8,630.0 230.6,630.3 243.3,632.0 256.1,635.5 268.9,640.6 281.7,647.0 294.4,654.2 307.2,661.9 320.0,669.8 332.8,677.8 345.6,685.6 358.3,693.3 371.1,700.7 383.9,707.8 396.7,714.6 409.4,721.1 422.2,727.1 435.0,732.8 447.8,737.8 460.6,742.2 473.3,745.8 486.1,748.4 498.9,749.6 511.7,749.2 524.4,746.5 537.2,741.1 550.0,732.2 562.8,719.4 575.6,702.2 588.3,680.9 601.1,656.7 613.9,631.8 626.7,608.9 639.4,590.6 652.2,578.7 665.0,573.6" fill="none" stroke="#999" stroke-width="4"/>
<polyline points="-37.8,630.0 -25.0,630.0 -12.2,630.0 0.6,630.0 13.3,630.0 26.1,630.0 38.9,630.0 51.7,630.0 64.4,630.0 77.2,630.0 90.0,630.0 102.8,630.0 115.6,630.0 128.3,630.0 141.1,630.0 153.9,630.0 166.7,630.0 179.4,630.0 192.2,630.0 205.0,630.0 217.8,630.0 230.6,630.3 243.3,632.0 256.1,635.5 268.9,640.6 281.7,647.0 294.4,649.8 307.2,649.3 320.0,648.8 332.8,648.6 345.6,648.9 358.3,649.8 371.1,651.2 383.9,653.3 396.7,656.2 409.4,659.8 422.2,664.2 435.0,669.4 447.8,675.4 460.6,682.1 473.3,689.3 486.1,696.9 498.9,704.4 511.7,711.7 524.4,718.2 537.2,723.4 550.0,726.5 562.8,726.5 575.6,721.2 588.3,706.9 601.1,687.6 613.9,666.8 626.7,646.7 639.4,629.5 652.2,616.9 665.0,609.5" fill="none" stroke="#9fc32b" stroke-width="4"/>
</g>
<line x1="115" x2="170" y1="545" y2="545" stroke="#3498db" stroke-width="5"/>
<text x="180" y="552" class="legend">Fixed NLC</text>
<line x1="115" x2="170" y1="573" y2="573" stroke="#999" stroke-width="5"/>
<text x="180" y="580" class="legend">Hinged LLC</text>
<line x1="115" x2="170" y1="601" y2="601" stroke="#9fc32b" stroke-width="5"/>
<text x="180" y="608" class="legend">Hinged NLC</text>
<rect x="635" y="510" width="460" height="300" fill="#fbfbfb" stroke="none"/>
<line x1="635.0" x2="635.0" y1="510" y2="810" class="grid"/>
<line x1="635" x2="1095" y1="810.0" y2="810.0" class="grid"/>
<text x="635.0" y="837" class="small" text-anchor="middle">-0.05</text>
<text x="619" y="815.0" class="small" text-anchor="end">-0.2</text>
<line x1="865.0" x2="865.0" y1="510" y2="810" class="grid"/>
<line x1="635" x2="1095" y1="660.0" y2="660.0" class="grid"/>
<text x="865.0" y="837" class="small" text-anchor="middle">0.04</text>
<text x="619" y="665.0" class="small" text-anchor="end">0.55</text>
<line x1="1095.0" x2="1095.0" y1="510" y2="810" class="grid"/>
<line x1="635" x2="1095" y1="510.0" y2="510.0" class="grid"/>
<text x="1095.0" y="837" class="small" text-anchor="middle">0.13</text>
<text x="619" y="515.0" class="small" text-anchor="end">1.3</text>
<rect x="635" y="510" width="460" height="300" fill="none" class="axis"/>
<text x="865.0" y="868" text-anchor="middle">Time (s)</text>
<text x="635" y="478" class="ylabel">Rejection (m/s)</text>
<text x="643" y="538" class="small">(d)</text>
<g clip-path="url(#clip-3)">
<polyline points="507.2,770.0 520.0,770.0 532.8,770.0 545.6,770.0 558.3,770.0 571.1,770.0 583.9,770.0 596.7,770.0 609.4,770.0 622.2,770.0 635.0,770.0 647.8,770.0 660.6,770.0 673.3,770.0 686.1,770.0 698.9,770.0 711.7,770.0 724.4,770.0 737.2,770.0 750.0,770.0 762.8,770.0 775.6,769.9 788.3,769.4 801.1,768.0 813.9,765.4 826.7,761.3 839.4,755.9 852.2,750.3 865.0,744.8 877.8,739.2 890.6,733.7 903.3,728.1 916.1,722.6 928.9,717.0 941.7,711.5 954.4,705.9 967.2,700.4 980.0,694.8 992.8,689.3 1005.6,683.7 1018.3,678.2 1031.1,672.6 1043.9,667.1 1056.7,661.5 1069.4,656.0 1082.2,650.4 1095.0,644.9 1107.8,639.5 1120.6,636.2 1133.3,635.5 1146.1,637.1 1158.9,640.5 1171.7,645.4 1184.4,651.3 1197.2,657.7 1210.0,664.2" fill="none" stroke="#000" stroke-width="4"/>
<polyline points="507.2,770.0 520.0,770.0 532.8,770.0 545.6,770.0 558.3,770.0 571.1,770.0 583.9,770.0 596.7,770.0 609.4,770.0 622.2,770.0 635.0,770.0 647.8,770.0 660.6,770.0 673.3,770.0 686.1,770.0 698.9,770.0 711.7,770.0 724.4,770.0 737.2,770.0 750.0,770.0 762.8,770.0 775.6,770.0 788.3,769.9 801.1,769.6 813.9,768.8 826.7,767.4 839.4,765.5 852.2,764.0 865.0,762.7 877.8,761.4 890.6,760.2 903.3,759.0 916.1,757.7 928.9,756.3 941.7,754.6 954.4,752.8 967.2,750.6 980.0,748.1 992.8,745.3 1005.6,742.0 1018.3,738.4 1031.1,734.3 1043.9,729.9 1056.7,725.3 1069.4,720.3 1082.2,715.1 1095.0,709.7 1107.8,704.2 1120.6,700.5 1133.3,699.0 1146.1,699.3 1158.9,701.1 1171.7,704.1 1184.4,708.0 1197.2,712.5 1210.0,717.3" fill="none" stroke="#9fc32b" stroke-width="4"/>
<polyline points="507.2,770.0 520.0,770.0 532.8,770.0 545.6,770.0 558.3,770.0 571.1,770.0 583.9,770.0 596.7,770.0 609.4,770.0 622.2,770.0 635.0,770.0 647.8,770.0 660.6,770.0 673.3,770.0 686.1,770.0 698.9,770.0 711.7,770.0 724.4,770.0 737.2,770.0 750.0,770.0 762.8,770.0 775.6,769.9 788.3,769.5 801.1,768.6 813.9,767.2 826.7,765.1 839.4,762.5 852.2,759.6 865.0,756.4 877.8,753.1 890.6,749.8 903.3,746.5 916.1,743.4 928.9,740.5 941.7,737.8 954.4,735.6 967.2,733.9 980.0,732.7 992.8,732.1 1005.6,732.2 1018.3,732.9 1031.1,734.3 1043.9,736.2 1056.7,738.6 1069.4,741.5 1082.2,744.7 1095.0,748.2 1107.8,751.8 1120.6,755.4 1133.3,758.9 1146.1,762.2 1158.9,765.2 1171.7,767.9 1184.4,770.1 1197.2,771.8 1210.0,772.9" fill="none" stroke="#4b3f99" stroke-width="4"/>
</g>
<line x1="660" x2="715" y1="545" y2="545" stroke="#000" stroke-width="5"/>
<text x="725" y="552" class="legend">Potential</text>
<line x1="660" x2="715" y1="573" y2="573" stroke="#9fc32b" stroke-width="5"/>
<text x="725" y="580" class="legend">Aerodynamic</text>
<line x1="660" x2="715" y1="601" y2="601" stroke="#4b3f99" stroke-width="5"/>
<text x="725" y="608" class="legend">Inertial</text>
</svg>