<svg xmlns="http://www.w3.org/2000/svg" width="1140" height="890" viewBox="0 0 1140 890">
<style>text{font-family:Arial,Helvetica,sans-serif;font-size:20px}.small{font-size:15px}.axis{stroke:#222;stroke-width:2;fill:none}.grid{stroke:#ddd;stroke-width:1}.legend{font-size:17px}.ylabel{font-size:18px;font-weight:600}</style>
<rect width="100%" height="100%" fill="white"/>
<defs>
<clipPath id="clip-0"><rect x="90" y="85" width="460" height="300"/></clipPath>
<clipPath id="clip-1"><rect x="635" y="85" width="460" height="300"/></clipPath>
<clipPath id="clip-2"><rect x="90" y="510" width="1005" height="300"/></clipPath>
</defs>
<rect x="90" y="85" width="460" height="300" fill="#fbfbfb" stroke="none"/>
<line x1="90.0" x2="90.0" y1="85" y2="385" class="grid"/>
<line x1="90" x2="550" y1="385.0" y2="385.0" class="grid"/>
<text x="90.0" y="412" class="small" text-anchor="middle">-0.05</text>
<text x="74" y="390.0" class="small" text-anchor="end">0.2</text>
<line x1="320.0" x2="320.0" y1="85" y2="385" class="grid"/>
<line x1="90" x2="550" y1="235.0" y2="235.0" class="grid"/>
<text x="320.0" y="412" class="small" text-anchor="middle">0.04</text>
<text x="74" y="240.0" class="small" text-anchor="end">0.43</text>
<line x1="550.0" x2="550.0" y1="85" y2="385" class="grid"/>
<line x1="90" x2="550" y1="85.0" y2="85.0" class="grid"/>
<text x="550.0" y="412" class="small" text-anchor="middle">0.13</text>
<text x="74" y="90.0" class="small" text-anchor="end">0.65</text>
<rect x="90" y="85" width="460" height="300" fill="none" class="axis"/>
<text x="320.0" y="443" text-anchor="middle">Time (s)</text>
<text x="90" y="53" class="ylabel">Centre of pressure</text>
<text x="98" y="113" class="small">(a)</text>
<g clip-path="url(#clip-0)">
<polyline points="-37.8,185.0 -25.0,185.0 -12.2,185.0 0.6,185.0 13.3,185.0 26.1,185.0 38.9,185.0 51.7,185.0 64.4,185.0 77.2,185.0 90.0,185.0 102.8,185.0 115.6,185.0 128.3,185.0 141.1,185.0 153.9,185.0 166.7,185.0 179.4,185.0 192.2,185.0 205.0,185.0 217.8,185.0 230.6,185.0 243.3,185.0 256.1,185.0 268.9,185.0 281.7,185.0 294.4,185.0 307.2,185.0 320.0,185.0 332.8,185.0 345.6,185.0 358.3,185.0 371.1,185.0 383.9,185.0 396.7,185.0 409.4,185.0 422.2,185.0 435.0,185.0 447.8,185.0 460.6,185.0 473.3,185.0 486.1,185.0 498.9,185.0 511.7,185.0 524.4,185.0 537.2,185.0 550.0,185.0 562.8,185.0 575.6,185.0 588.3,185.0 601.1,185.0 613.9,185.0 626.7,185.0 639.4,185.0 652.2,185.0 665.0,185.0" fill="none" stroke="#3498db" stroke-width="4"/>
<polyline points="-37.8,185.0 -25.0,185.0 -12.2,185.0 0.6,185.0 13.3,185.0 26.1,185.0 38.9,185.0 51.7,185.0 64.4,185.0 77.2,185.0 90.0,185.0 102.8,185.0 115.6,185.0 128.3,185.0 141.1,185.0 153.9,185.0 166.7,185.0 179.4,185.0 192.2,185.0 205.0,185.0 217.8,185.0 230.6,185.3 243.3,187.2 256.1,191.1 268.9,196.8 281.7,203.9 294.4,207.0 307.2,206.5 320.0,205.9 332.8,205.7 345.6,206.0 358.3,207.0 371.1,208.6 383.9,210.9 396.7,214.1 409.4,218.1 422.2,223.0 435.0,228.8 447.8,235.5 460.6,242.9 473.3,250.9 486.1,259.3 498.9,267.7 511.7,275.8 524.4,283.0 537.2,288.8 550.0,292.3 562.8,292.2 575.6,286.3 588.3,270.4 601.1,249.0 613.9,225.9 626.7,203.5 639.4,184.5 652.2,170.4 665.0,162.3" fill="none" stroke="#b6d33a" stroke-width="4"/>
<polyline points="-37.8,185.0 -25.0,185.0 -12.2,185.0 0.6,185.0 13.3,185.0 26.1,185.0 38.9,185.0 51.7,185.0 64.4,185.0 77.2,185.0 90.0,185.0 102.8,185.0 115.6,185.0 128.3,185.0 141.1,185.0 153.9,185.0 166.7,185.0 179.4,185.0 192.2,185.0 205.0,185.0 217.8,185.0 230.6,185.2 243.3,186.4 256.1,189.0 268.9,193.0 281.7,198.0 294.4,197.7 307.2,194.4 320.0,192.1 332.8,190.6 345.6,189.8 358.3,189.6 371.1,190.0 383.9,191.1 396.7,193.0 409.4,196.0 422.2,200.3 435.0,206.1 447.8,213.6 460.6,222.7 473.3,233.5 486.1,245.9 498.9,259.7 511.7,274.4 524.4,289.7 537.2,304.6 550.0,317.9 562.8,327.8 575.6,331.2 588.3,322.9 601.1,304.2 613.9,277.9 626.7,247.8 639.4,218.8 652.2,195.4 665.0,179.7" fill="none" stroke="#80b82d" stroke-width="4"/>
<polyline points="-37.8,185.0 -25.0,185.0 -12.2,185.0 0.6,185.0 13.3,185.0 26.1,185.0 38.9,185.0 51.7,185.0 64.4,185.0 77.2,185.0 90.0,185.0 102.8,185.0 115.6,185.0 128.3,185.0 141.1,185.0 153.9,185.0 166.7,185.0 179.4,185.0 192.2,185.0 205.0,185.0 217.8,185.0 230.6,185.1 243.3,186.0 256.1,188.0 268.9,191.0 281.7,194.8 294.4,192.3 307.2,188.0 320.0,185.8 332.8,185.0 345.6,185.0 358.3,185.0 371.1,185.0 383.9,185.0 396.7,185.0 409.4,185.0 422.2,185.4 435.0,187.4 447.8,191.6 460.6,198.6 473.3,208.3 486.1,220.8 498.9,236.0 511.7,253.6 524.4,273.2 537.2,294.5 550.0,316.4 562.8,337.4 575.6,354.4 588.3,361.9 601.1,356.8 613.9,338.1 626.7,306.2 639.4,267.8 652.2,232.3 665.0,205.8" fill="none" stroke="#3a8f2d" stroke-width="4"/>
</g>
<line x1="115" x2="170" y1="120" y2="120" stroke="#3498db" stroke-width="5"/>
<text x="180" y="127" class="legend">Fixed</text>
<line x1="115" x2="170" y1="148" y2="148" stroke="#b6d33a" stroke-width="5"/>
<text x="180" y="155" class="legend">0.20 M</text>
<line x1="115" x2="170" y1="176" y2="176" stroke="#80b82d" stroke-width="5"/>
<text x="180" y="183" class="legend">0.35 M</text>
<line x1="115" x2="170" y1="204" y2="204" stroke="#3a8f2d" stroke-width="5"/>
<text x="180" y="211" class="legend">0.50 M</text>
<rect x="635" y="85" width="460" height="300" fill="#fbfbfb" stroke="none"/>
<line x1="635.0" x2="635.0" y1="85" y2="385" class="grid"/>
<line x1="635" x2="1095" y1="385.0" y2="385.0" class="grid"/>
<text x="635.0" y="412" class="small" text-anchor="middle">-0.05</text>
<text x="619" y="390.0" class="small" text-anchor="end">-0.05</text>
<line x1="865.0" x2="865.0" y1="85" y2="385" class="grid"/>
<line x1="635" x2="1095" y1="235.0" y2="235.0" class="grid"/>
<text x="865.0" y="412" class="small" text-anchor="middle">0.04</text>
<text x="619" y="240.0" class="small" text-anchor="end">0.33</text>
<line x1="1095.0" x2="1095.0" y1="85" y2="385" class="grid"/>
<line x1="635" x2="1095" y1="85.0" y2="85.0" class="grid"/>
<text x="1095.0" y="412" class="small" text-anchor="middle">0.13</text>
<text x="619" y="90.0" class="small" text-anchor="end">0.7</text>
<rect x="635" y="85" width="460" height="300" fill="none" class="axis"/>
<text x="865.0" y="443" text-anchor="middle">Time (s)</text>
<text x="635" y="53" class="ylabel">Fuselage velocity (m/s)</text>
<text x="643" y="113" class="small">(b)</text>
<g clip-path="url(#clip-1)">
<polyline points="507.2,365.0 520.0,365.0 532.8,365.0 545.6,365.0 558.3,365.0 571.1,365.0 583.9,365.0 596.7,365.0 609.4,365.0 622.2,365.0 635.0,365.0 647.8,365.0 660.6,365.0 673.3,365.0 686.1,365.0 698.9,365.0 711.7,365.0 724.4,365.0 737.2,365.0 750.0,365.0 762.8,365.0 775.6,364.8 788.3,363.8 801.1,361.0 813.9,355.9 826.7,347.7 839.4,336.8 852.2,325.7 865.0,314.6 877.8,303.5 890.6,292.4 903.3,281.3 916.1,270.2 928.9,259.1 941.7,248.0 954.4,236.9 967.2,225.8 980.0,214.7 992.8,203.6 1005.6,192.5 1018.3,181.4 1031.1,170.3 1043.9,159.2 1056.7,148.1 1069.4,137.0 1082.2,125.9 1095.0,114.8 1107.8,104.0 1120.6,97.4 1133.3,96.0 1146.1,99.2 1158.9,106.0 1171.7,115.8 1184.4,127.6 1197.2,140.4 1210.0,153.4" fill="none" stroke="#3498db" stroke-width="4"/>
<polyline points="507.2,365.0 520.0,365.0 532.8,365.0 545.6,365.0 558.3,365.0 571.1,365.0 583.9,365.0 596.7,365.0 609.4,365.0 622.2,365.0 635.0,365.0 647.8,365.0 660.6,365.0 673.3,365.0 686.1,365.0 698.9,365.0 711.7,365.0 724.4,365.0 737.2,365.0 750.0,365.0 762.8,365.0 775.6,365.0 788.3,364.9 801.1,364.6 813.9,363.9 826.7,362.6 839.4,360.6 852.2,358.5 865.0,356.5 877.8,354.4 890.6,352.4 903.3,350.3 916.1,348.1 928.9,345.7 941.7,343.0 954.4,340.1 967.2,336.8 980.0,333.0 992.8,328.8 1005.6,324.1 1018.3,318.9 1031.1,313.1 1043.9,306.9 1056.7,300.3 1069.4,293.4 1082.2,286.3 1095.0,279.1 1107.8,272.1 1120.6,265.6 1133.3,260.2 1146.1,256.1 1158.9,253.4 1171.7,251.9 1184.4,251.5 1197.2,251.9 1210.0,252.9" fill="none" stroke="#b6d33a" stroke-width="4"/>
<polyline points="507.2,365.0 520.0,365.0 532.8,365.0 545.6,365.0 558.3,365.0 571.1,365.0 583.9,365.0 596.7,365.0 609.4,365.0 622.2,365.0 635.0,365.0 647.8,365.0 660.6,365.0 673.3,365.0 686.1,365.0 698.9,365.0 711.7,365.0 724.4,365.0 737.2,365.0 750.0,365.0 762.8,365.0 775.6,365.0 788.3,364.9 801.1,364.7 813.9,364.2 826.7,363.1 839.4,361.6 852.2,360.3 865.0,359.4 877.8,358.7 890.6,358.0 903.3,357.5 916.1,356.9 928.9,356.3 941.7,355.5 954.4,354.4 967.2,352.9 980.0,350.8 992.8,348.1 1005.6,344.6 1018.3,340.2 1031.1,334.8 1043.9,328.5 1056.7,321.3 1069.4,313.3 1082.2,304.7 1095.0,295.7 1107.8,286.7 1120.6,278.0 1133.3,270.3 1146.1,264.0 1158.9,259.2 1171.7,255.9 1184.4,253.8 1197.2,252.8 1210.0,252.7" fill="none" stroke="#80b82d" stroke-width="4"/>
<polyline points="507.2,365.0 520.0,365.0 532.8,365.0 545.6,365.0 558.3,365.0 571.1,365.0 583.9,365.0 596.7,365.0 609.4,365.0 622.2,365.0 635.0,365.0 647.8,365.0 660.6,365.0 673.3,365.0 686.1,365.0 698.9,365.0 711.7,365.0 724.4,365.0 737.2,365.0 750.0,365.0 762.8,365.0 775.6,365.0 788.3,364.9 801.1,364.8 813.9,364.3 826.7,363.3 839.4,362.1 852.2,361.4 865.0,361.2 877.8,361.2 890.6,361.2 903.3,361.2 916.1,361.2 928.9,361.2 941.7,361.2 954.4,361.2 967.2,361.1 980.0,361.0 992.8,360.4 1005.6,359.1 1018.3,356.7 1031.1,353.1 1043.9,348.0 1056.7,341.4 1069.4,333.5 1082.2,324.3 1095.0,314.2 1107.8,303.5 1120.6,292.9 1133.3,283.1 1146.1,274.7 1158.9,267.8 1171.7,262.5 1184.4,258.6 1197.2,256.0 1210.0,254.5" fill="none" stroke="#3a8f2d" stroke-width="4"/>
</g>
<line x1="660" x2="715" y1="120" y2="120" stroke="#3498db" stroke-width="5"/>
<text x="725" y="127" class="legend">Fixed</text>
<line x1="660" x2="715" y1="148" y2="148" stroke="#b6d33a" stroke-width="5"/>
<text x="725" y="155" class="legend">0.20 M</text>
<line x1="660" x2="715" y1="176" y2="176" stroke="#80b82d" stroke-width="5"/>
<text x="725" y="183" class="legend">0.35 M</text>
<line x1="660" x2="715" y1="204" y2="204" stroke="#3a8f2d" stroke-width="5"/>
<text x="725" y="211" class="legend">0.50 M</text>
<rect x="90" y="510" width="1005" height="300" fill="#fbfbfb" stroke="none"/>
<line x1="90.0" x2="90.0" y1="510" y2="810" class="grid"/>
<line x1="90" x2="1095" y1="810.0" y2="810.0" class="grid"/>
<text x="90.0" y="837" class="small" text-anchor="middle">-0.05</text>
<text x="74" y="815.0" class="small" text-anchor="end">-0.05</text>
<line x1="592.5" x2="592.5" y1="510" y2="810" class="grid"/>
<line x1="90" x2="1095" y1="660.0" y2="660.0" class="grid"/>
<text x="592.5" y="837" class="small" text-anchor="middle">0.04</text>
<text x="74" y="665.0" class="small" text-anchor="end">0.33</text>
<line x1="1095.0" x2="1095.0" y1="510" y2="810" class="grid"/>
<line x1="90" x2="1095" y1="510.0" y2="510.0" class="grid"/>
<text x="1095.0" y="837" class="small" text-anchor="middle">0.13</text>
<text x="74" y="515.0" class="small" text-anchor="end">0.7</text>
<rect x="90" y="510" width="1005" height="300" fill="none" class="axis"/>
<text x="592.5" y="868" text-anchor="middle">Time (s)</text>
<text x="90" y="478" class="ylabel">Rejection (m/s)</text>
<text x="98" y="538" class="small">(c)</text>
<g clip-path="url(#clip-2)">
<polyline points="-189.2,790.0 -161.2,790.0 -133.3,790.0 -105.4,790.0 -77.5,790.0 -49.6,790.0 -21.7,790.0 6.2,790.0 34.2,790.0 62.1,790.0 90.0,790.0 117.9,790.0 145.8,790.0 173.8,790.0 201.7,790.0 229.6,790.0 257.5,790.0 285.4,790.0 313.3,790.0 341.2,790.0 369.2,790.0 397.1,789.9 425.0,789.1 452.9,787.3 480.8,784.3 508.8,780.2 536.7,775.1 564.6,769.2 592.5,762.8 620.4,756.2 648.3,749.6 676.2,743.0 704.2,736.8 732.1,730.9 760.0,725.7 787.9,721.3 815.8,717.8 843.8,715.4 871.7,714.3 899.6,714.4 927.5,715.8 955.4,718.5 983.3,722.4 1011.2,727.3 1039.2,733.0 1067.1,739.5 1095.0,746.4 1122.9,753.5 1150.8,760.7 1178.8,767.8 1206.7,774.5 1234.6,780.5 1262.5,785.7 1290.4,790.1 1318.3,793.5 1346.3,795.8" fill="none" stroke="#b6d33a" stroke-width="4"/>
<polyline points="-189.2,790.0 -161.2,790.0 -133.3,790.0 -105.4,790.0 -77.5,790.0 -49.6,790.0 -21.7,790.0 6.2,790.0 34.2,790.0 62.1,790.0 90.0,790.0 117.9,790.0 145.8,790.0 173.8,790.0 201.7,790.0 229.6,790.0 257.5,790.0 285.4,790.0 313.3,790.0 341.2,790.0 369.2,790.0 397.1,790.0 425.0,789.8 452.9,789.2 480.8,787.6 508.8,784.9 536.7,781.1 564.6,778.0 592.5,775.3 620.4,772.8 648.3,770.4 676.2,768.0 704.2,765.4 732.1,762.5 760.0,759.3 787.9,755.5 815.8,751.2 843.8,746.2 871.7,740.5 899.6,734.0 927.5,726.7 955.4,718.6 983.3,709.9 1011.2,700.5 1039.2,690.6 1067.1,680.2 1095.0,669.3 1122.9,658.3 1150.8,651.0 1178.8,648.0 1206.7,648.6 1234.6,652.1 1262.5,658.1 1290.4,666.0 1318.3,675.0 1346.3,684.7" fill="none" stroke="#b6d33a" stroke-width="4" stroke-dasharray="8 6"/>
<polyline points="-189.2,790.0 -161.2,790.0 -133.3,790.0 -105.4,790.0 -77.5,790.0 -49.6,790.0 -21.7,790.0 6.2,790.0 34.2,790.0 62.1,790.0 90.0,790.0 117.9,790.0 145.8,790.0 173.8,790.0 201.7,790.0 229.6,790.0 257.5,790.0 285.4,790.0 313.3,790.0 341.2,790.0 369.2,790.0 397.1,789.9 425.0,789.0 452.9,786.8 480.8,783.1 508.8,777.7 536.7,770.7 564.6,762.3 592.5,753.1 620.4,743.4 648.3,733.5 676.2,723.5 704.2,713.6 732.1,703.9 760.0,694.7 787.9,686.1 815.8,678.5 843.8,672.2 871.7,667.5 899.6,664.7 927.5,664.0 955.4,665.4 983.3,669.1 1011.2,674.8 1039.2,682.5 1067.1,691.8 1095.0,702.4 1122.9,713.9 1150.8,725.9 1178.8,738.0 1206.7,749.7 1234.6,760.6 1262.5,770.5 1290.4,779.2 1318.3,786.4 1346.3,792.0" fill="none" stroke="#80b82d" stroke-width="4"/>
<polyline points="-189.2,790.0 -161.2,790.0 -133.3,790.0 -105.4,790.0 -77.5,790.0 -49.6,790.0 -21.7,790.0 6.2,790.0 34.2,790.0 62.1,790.0 90.0,790.0 117.9,790.0 145.8,790.0 173.8,790.0 201.7,790.0 229.6,790.0 257.5,790.0 285.4,790.0 313.3,790.0 341.2,790.0 369.2,790.0 397.1,790.0 425.0,789.9 452.9,789.5 480.8,788.6 508.8,786.9 536.7,784.5 564.6,783.1 592.5,782.1 620.4,781.4 648.3,780.9 676.2,780.3 704.2,779.7 732.1,778.9 760.0,777.9 787.9,776.4 815.8,774.4 843.8,771.6 871.7,768.0 899.6,763.2 927.5,757.3 955.4,750.1 983.3,741.6 1011.2,731.9 1039.2,721.1 1067.1,709.3 1095.0,696.6 1122.9,683.4 1150.8,673.5 1178.8,667.8 1206.7,665.5 1234.6,666.2 1262.5,669.4 1290.4,674.6 1318.3,681.2 1346.3,688.7" fill="none" stroke="#80b82d" stroke-width="4" stroke-dasharray="8 6"/>
<polyline points="-189.2,790.0 -161.2,790.0 -133.3,790.0 -105.4,790.0 -77.5,790.0 -49.6,790.0 -21.7,790.0 6.2,790.0 34.2,790.0 62.1,790.0 90.0,790.0 117.9,790.0 145.8,790.0 173.8,790.0 201.7,790.0 229.6,790.0 257.5,790.0 285.4,790.0 313.3,790.0 341.2,790.0 369.2,790.0 397.1,789.9 425.0,788.9 452.9,786.6 480.8,782.5 508.8,776.4 536.7,768.2 564.6,758.4 592.5,747.8 620.4,736.7 648.3,725.7 676.2,714.6 704.2,703.6 732.1,692.7 760.0,681.8 787.9,671.1 815.8,660.5 843.8,650.4 871.7,641.2 899.6,633.6 927.5,628.2 955.4,625.5 983.3,625.8 1011.2,629.2 1039.2,635.8 1067.1,645.2 1095.0,657.1 1122.9,670.9 1150.8,686.1 1178.8,701.9 1206.7,717.8 1234.6,733.0 1262.5,747.3 1290.4,760.1 1318.3,771.3 1346.3,780.5" fill="none" stroke="#3a8f2d" stroke-width="4"/>
<polyline points="-189.2,790.0 -161.2,790.0 -133.3,790.0 -105.4,790.0 -77.5,790.0 -49.6,790.0 -21.7,790.0 6.2,790.0 34.2,790.0 62.1,790.0 90.0,790.0 117.9,790.0 145.8,790.0 173.8,790.0 201.7,790.0 229.6,790.0 257.5,790.0 285.4,790.0 313.3,790.0 341.2,790.0 369.2,790.0 397.1,790.0 425.0,789.9 452.9,789.7 480.8,789.1 508.8,787.9 536.7,786.4 564.6,785.8 592.5,785.6 620.4,785.6 648.3,785.6 676.2,785.5 704.2,785.4 732.1,785.3 760.0,785.0 787.9,784.7 815.8,784.2 843.8,783.3 871.7,782.0 899.6,779.8 927.5,776.5 955.4,771.7 983.3,765.4 1011.2,757.4 1039.2,747.7 1067.1,736.4 1095.0,723.5 1122.9,709.5 1150.8,698.4 1178.8,691.0 1206.7,686.7 1234.6,685.2 1262.5,686.0 1290.4,688.8 1318.3,693.1 1346.3,698.4" fill="none" stroke="#3a8f2d" stroke-width="4" stroke-dasharray="8 6"/>
</g>
<line x1="115" x2="170" y1="545" y2="545" stroke="#b6d33a" stroke-width="5"/>
<text x="180" y="552" class="legend">Inertial 0.20</text>
<line x1="115" x2="170" y1="573" y2="573" stroke="#b6d33a" stroke-width="5" stroke-dasharray="8 6"/>
<text x="180" y="580" class="legend">Aero 0.20</text>
<line x1="115" x2="170" y1="601" y2="601" stroke="#80b82d" stroke-width="5"/>
<text x="180" y="608" class="legend">Inertial 0.35</text>
<line x1="115" x2="170" y1="629" y2="629" stroke="#80b82d" stroke-width="5" stroke-dasharray="8 6"/>
<text x="180" y="636" class="legend">Aero 0.35</text>
<line x1="115" x2="170" y1="657" y2="657" stroke="#3a8f2d" stroke-width="5"/>
<text x="180" y="664" class="legend">Inertial 0.50</text>
<line x1="115" x2="170" y1="685" y2="685" stroke="#3a8f2d" stroke-width="5" stroke-dasharray="8 6"/>
<text x="180" y="692" class="legend">Aero 0.50</text>
</svg>