<svg xmlns="http://www.w3.org/2000/svg" width="1140" height="890" viewBox="0 0 1140 890">
<style>text{font-family:Arial,Helvetica,sans-serif;font-size:20px}.small{font-size:15px}.axis{stroke:#222;stroke-width:2;fill:none}.grid{stroke:#ddd;stroke-width:1}.legend{font-size:17px}.ylabel{font-size:18px;font-weight:600}</style>
<rect width="100%" height="100%" fill="white"/>
<defs>
<clipPath id="clip-0"><rect x="90" y="85" width="460" height="300"/></clipPath>
<clipPath id="clip-1"><rect x="635" y="85" width="460" height="300"/></clipPath>
<clipPath id="clip-2"><rect x="90" y="510" width="460" height="300"/></clipPath>
<clipPath id="clip-3"><rect x="635" y="510" width="460" height="300"/></clipPath>
</defs>
<rect x="90" y="85" width="460" height="300" fill="#fbfbfb" stroke="none"/>
<line x1="90.0" x2="90.0" y1="85" y2="385" class="grid"/>
<line x1="90" x2="550" y1="385.0" y2="385.0" class="grid"/>
<text x="90.0" y="412" class="small" text-anchor="middle">-0.05</text>
<text x="74" y="390.0" class="small" text-anchor="end">-1</text>
<line x1="320.0" x2="320.0" y1="85" y2="385" class="grid"/>
<line x1="90" x2="550" y1="235.0" y2="235.0" class="grid"/>
<text x="320.0" y="412" class="small" text-anchor="middle">0.04</text>
<text x="74" y="240.0" class="small" text-anchor="end">2</text>
<line x1="550.0" x2="550.0" y1="85" y2="385" class="grid"/>
<line x1="90" x2="550" y1="85.0" y2="85.0" class="grid"/>
<text x="550.0" y="412" class="small" text-anchor="middle">0.13</text>
<text x="74" y="90.0" class="small" text-anchor="end">5</text>
<rect x="90" y="85" width="460" height="300" fill="none" class="axis"/>
<text x="320.0" y="443" text-anchor="middle">Time (s)</text>
<text x="90" y="53" class="ylabel">Force / reaction (N)</text>
<text x="98" y="113" class="small">(a)</text>
<g clip-path="url(#clip-0)">
<polygon points="90,385 -37.8,335.0 -25.0,335.0 -12.2,335.0 0.6,335.0 13.3,335.0 26.1,335.0 38.9,335.0 51.7,335.0 64.4,335.0 77.2,335.0 90.0,335.0 102.8,335.0 115.6,335.0 128.3,335.0 141.1,335.0 153.9,335.0 166.7,335.0 179.4,335.0 192.2,335.0 205.0,335.0 217.8,335.0 230.6,333.3 243.3,328.1 256.1,319.6 268.9,308.2 281.7,294.1 294.4,277.9 307.2,260.0 320.0,241.0 332.8,221.6 345.6,202.3 358.3,183.8 371.1,166.6 383.9,151.4 396.7,138.6 409.4,128.6 422.2,121.8 435.0,118.3 447.8,118.3 460.6,121.8 473.3,128.6 486.1,138.6 498.9,151.4 511.7,166.6 524.4,183.8 537.2,202.3 550.0,221.6 562.8,241.0 575.6,260.0 588.3,277.9 601.1,294.1 613.9,308.2 626.7,319.6 639.4,328.1 652.2,333.3 665.0,335.0 550,385" fill="#d7d7d7" opacity="0.75"/>
<polyline points="-37.8,335.0 -25.0,335.0 -12.2,335.0 0.6,335.0 13.3,335.0 26.1,335.0 38.9,335.0 51.7,335.0 64.4,335.0 77.2,335.0 90.0,335.0 102.8,335.0 115.6,335.0 128.3,335.0 141.1,335.0 153.9,335.0 166.7,335.0 179.4,335.0 192.2,335.0 205.0,335.0 217.8,335.0 230.6,333.3 243.3,328.1 256.1,319.6 268.9,308.2 281.7,294.1 294.4,277.9 307.2,260.0 320.0,241.0 332.8,221.6 345.6,202.3 358.3,183.8 371.1,166.6 383.9,151.4 396.7,138.6 409.4,128.6 422.2,121.8 435.0,118.3 447.8,118.3 460.6,121.8 473.3,128.6 486.1,138.6 498.9,151.4 511.7,166.6 524.4,183.8 537.2,202.3 550.0,221.6 562.8,241.0 575.6,260.0 588.3,277.9 601.1,294.1 613.9,308.2 626.7,319.6 639.4,328.1 652.2,333.3 665.0,335.0" fill="none" stroke="#000" stroke-width="5"/>
<polyline points="-37.8,335.0 -25.0,335.0 -12.2,335.0 0.6,335.0 13.3,335.0 26.1,335.0 38.9,335.0 51.7,335.0 64.4,335.0 77.2,335.0 90.0,335.0 102.8,335.0 115.6,335.0 128.3,335.0 141.1,335.0 153.9,335.0 166.7,335.0 179.4,335.0 192.2,335.0 205.0,335.0 217.8,335.0 230.6,333.3 243.3,328.3 256.1,320.5 268.9,310.3 281.7,298.0 294.4,284.4 307.2,270.0 320.0,255.4 332.8,241.2 345.6,228.0 358.3,216.3 371.1,206.6 383.9,199.4 396.7,194.9 409.4,193.4 422.2,195.1 435.0,199.9 447.8,207.8 460.6,218.7 473.3,232.1 486.1,247.9 498.9,265.4 511.7,284.2 524.4,303.9 537.2,323.7 550.0,343.0 562.8,361.4 575.6,378.3 588.3,393.1 601.1,405.5 613.9,415.0 626.7,421.4 639.4,424.5 652.2,424.3 665.0,420.7" fill="none" stroke="#3498db" stroke-width="3"/>
<polyline points="-37.8,335.0 -25.0,335.0 -12.2,335.0 0.6,335.0 13.3,335.0 26.1,335.0 38.9,335.0 51.7,335.0 64.4,335.0 77.2,335.0 90.0,335.0 102.8,335.0 115.6,335.0 128.3,335.0 141.1,335.0 153.9,335.0 166.7,335.0 179.4,335.0 192.2,335.0 205.0,335.0 217.8,335.0 230.6,333.5 243.3,329.7 256.1,324.3 268.9,318.1 281.7,311.2 294.4,304.2 307.2,297.2 320.0,290.6 332.8,284.6 345.6,279.5 358.3,275.3 371.1,272.3 383.9,270.5 396.7,270.1 409.4,271.0 422.2,273.3 435.0,276.8 447.8,281.5 460.6,287.3 473.3,293.9 486.1,301.3 498.9,309.0 511.7,316.9 524.4,324.8 537.2,332.5 550.0,339.6 562.8,345.9 575.6,351.4 588.3,355.7 601.1,358.8 613.9,360.6 626.7,361.0 639.4,360.1 652.2,357.8 665.0,354.3" fill="none" stroke="#9fc32b" stroke-width="3"/>
<polyline points="-37.8,335.0 -25.0,335.0 -12.2,335.0 0.6,335.0 13.3,335.0 26.1,335.0 38.9,335.0 51.7,335.0 64.4,335.0 77.2,335.0 90.0,335.0 102.8,335.0 115.6,335.0 128.3,335.0 141.1,335.0 153.9,335.0 166.7,335.0 179.4,335.0 192.2,335.0 205.0,335.0 217.8,335.0 230.6,334.9 243.3,334.4 256.1,333.5 268.9,331.9 281.7,329.8 294.4,327.1 307.2,324.0 320.0,320.5 332.8,316.8 345.6,312.9 358.3,309.1 371.1,305.4 383.9,302.0 396.7,299.0 409.4,296.5 422.2,294.7 435.0,293.5 447.8,293.0 460.6,293.3 473.3,294.3 486.1,296.0 498.9,298.4 511.7,301.5 524.4,305.1 537.2,309.0 550.0,313.3 562.8,317.8 575.6,322.3 588.3,326.7 601.1,330.8 613.9,334.7 626.7,338.0 639.4,340.8 652.2,342.9 665.0,343.8" fill="none" stroke="#9fc32b" stroke-width="6"/>
</g>
<line x1="115" x2="170" y1="120" y2="120" stroke="#000" stroke-width="5"/>
<text x="180" y="127" class="legend">Immobile</text>
<line x1="115" x2="170" y1="148" y2="148" stroke="#3498db" stroke-width="5"/>
<text x="180" y="155" class="legend">Fixed</text>
<line x1="115" x2="170" y1="176" y2="176" stroke="#9fc32b" stroke-width="5"/>
<text x="180" y="183" class="legend">Hinged force</text>
<line x1="115" x2="170" y1="204" y2="204" stroke="#9fc32b" stroke-width="5"/>
<text x="180" y="211" class="legend">Hinged reaction</text>
<rect x="635" y="85" width="460" height="300" fill="#fbfbfb" stroke="none"/>
<line x1="635.0" x2="635.0" y1="85" y2="385" class="grid"/>
<line x1="635" x2="1095" y1="385.0" y2="385.0" class="grid"/>
<text x="635.0" y="412" class="small" text-anchor="middle">-0.05</text>
<text x="619" y="390.0" class="small" text-anchor="end">-0.2</text>
<line x1="865.0" x2="865.0" y1="85" y2="385" class="grid"/>
<line x1="635" x2="1095" y1="235.0" y2="235.0" class="grid"/>
<text x="865.0" y="412" class="small" text-anchor="middle">0.04</text>
<text x="619" y="240.0" class="small" text-anchor="end">0.65</text>
<line x1="1095.0" x2="1095.0" y1="85" y2="385" class="grid"/>
<line x1="635" x2="1095" y1="85.0" y2="85.0" class="grid"/>
<text x="1095.0" y="412" class="small" text-anchor="middle">0.13</text>
<text x="619" y="90.0" class="small" text-anchor="end">1.5</text>
<rect x="635" y="85" width="460" height="300" fill="none" class="axis"/>
<text x="865.0" y="443" text-anchor="middle">Time (s)</text>
<text x="635" y="53" class="ylabel">Mass velocity (m/s)</text>
<text x="643" y="113" class="small">(b)</text>
<g clip-path="url(#clip-1)">
<polyline points="507.2,349.7 520.0,349.7 532.8,349.7 545.6,349.7 558.3,349.7 571.1,349.7 583.9,349.7 596.7,349.7 609.4,349.7 622.2,349.7 635.0,349.7 647.8,349.7 660.6,349.7 673.3,349.7 686.1,349.7 698.9,349.7 711.7,349.7 724.4,349.7 737.2,349.7 750.0,349.7 762.8,349.7 775.6,349.6 788.3,349.2 801.1,348.0 813.9,345.7 826.7,342.1 839.4,336.9 852.2,330.1 865.0,321.6 877.8,311.4 890.6,299.6 903.3,286.3 916.1,271.7 928.9,256.2 941.7,239.9 954.4,223.3 967.2,206.7 980.0,190.5 992.8,175.1 1005.6,160.7 1018.3,147.8 1031.1,136.6 1043.9,127.4 1056.7,120.3 1069.4,115.4 1082.2,112.9 1095.0,112.8 1107.8,114.8 1120.6,118.9 1133.3,124.9 1146.1,132.5 1158.9,141.4 1171.7,151.2 1184.4,161.6 1197.2,172.1 1210.0,182.5" fill="none" stroke="#3498db" stroke-width="4"/>
<polyline points="507.2,349.7 520.0,349.7 532.8,349.7 545.6,349.7 558.3,349.7 571.1,349.7 583.9,349.7 596.7,349.7 609.4,349.7 622.2,349.7 635.0,349.7 647.8,349.7 660.6,349.7 673.3,349.7 686.1,349.7 698.9,349.7 711.7,349.7 724.4,349.7 737.2,349.7 750.0,349.7 762.8,349.7 775.6,349.6 788.3,349.3 801.1,348.3 813.9,346.7 826.7,344.3 839.4,341.1 852.2,337.1 865.0,332.3 877.8,326.7 890.6,320.5 903.3,313.7 916.1,306.6 928.9,299.2 941.7,291.7 954.4,284.4 967.2,277.3 980.0,270.6 992.8,264.4 1005.6,258.8 1018.3,254.0 1031.1,250.0 1043.9,246.7 1056.7,244.3 1069.4,242.6 1082.2,241.7 1095.0,241.5 1107.8,242.0 1120.6,243.1 1133.3,244.6 1146.1,246.6 1158.9,249.0 1171.7,251.5 1184.4,254.1 1197.2,256.7 1210.0,259.0" fill="none" stroke="#9fc32b" stroke-width="4"/>
<polyline points="507.2,349.7 520.0,349.7 532.8,349.7 545.6,349.7 558.3,349.7 571.1,349.7 583.9,349.7 596.7,349.7 609.4,349.7 622.2,349.7 635.0,349.7 647.8,349.7 660.6,349.7 673.3,349.7 686.1,349.7 698.9,349.7 711.7,349.7 724.4,349.7 737.2,349.7 750.0,349.7 762.8,349.7 775.6,349.4 788.3,347.6 801.1,343.5 813.9,336.7 826.7,327.1 839.4,314.8 852.2,300.1 865.0,283.4 877.8,265.2 890.6,246.0 903.3,226.4 916.1,207.0 928.9,188.6 941.7,171.7 954.4,156.8 967.2,144.5 980.0,135.2 992.8,129.0 1005.6,126.1 1018.3,126.3 1031.1,129.7 1043.9,135.7 1056.7,144.2 1069.4,154.6 1082.2,166.5 1095.0,179.6 1107.8,193.4 1120.6,207.6 1133.3,221.6 1146.1,235.3 1158.9,248.3 1171.7,260.1 1184.4,270.4 1197.2,279.0 1210.0,285.4" fill="none" stroke="#9fc32b" stroke-width="4" stroke-dasharray="8 6"/>
<polyline points="507.2,349.7 520.0,349.7 532.8,349.7 545.6,349.7 558.3,349.7 571.1,349.7 583.9,349.7 596.7,349.7 609.4,349.7 622.2,349.7 635.0,349.7 647.8,349.7 660.6,349.7 673.3,349.7 686.1,349.7 698.9,349.7 711.7,349.7 724.4,349.7 737.2,349.7 750.0,349.7 762.8,349.7 775.6,349.7 788.3,349.7 801.1,349.5 813.9,349.2 826.7,348.6 839.4,347.7 852.2,346.3 865.0,344.5 877.8,342.1 890.6,339.1 903.3,335.6 916.1,331.5 928.9,326.8 941.7,321.8 954.4,316.3 967.2,310.4 980.0,304.4 992.8,298.2 1005.6,292.0 1018.3,286.0 1031.1,280.1 1043.9,274.5 1056.7,269.3 1069.4,264.6 1082.2,260.5 1095.0,257.0 1107.8,254.1 1120.6,251.9 1133.3,250.4 1146.1,249.5 1158.9,249.2 1171.7,249.4 1184.4,250.0 1197.2,251.1 1210.0,252.4" fill="none" stroke="#9fc32b" stroke-width="4" stroke-dasharray="8 6"/>
</g>
<line x1="660" x2="715" y1="120" y2="120" stroke="#3498db" stroke-width="5"/>
<text x="725" y="127" class="legend">Fixed</text>
<line x1="660" x2="715" y1="148" y2="148" stroke="#9fc32b" stroke-width="5"/>
<text x="725" y="155" class="legend">Hinged</text>
<line x1="660" x2="715" y1="176" y2="176" stroke="#9fc32b" stroke-width="5" stroke-dasharray="8 6"/>
<text x="725" y="183" class="legend">Wings</text>
<line x1="660" x2="715" y1="204" y2="204" stroke="#9fc32b" stroke-width="5" stroke-dasharray="8 6"/>
<text x="725" y="211" class="legend">Body</text>
<rect x="90" y="510" width="460" height="300" fill="#fbfbfb" stroke="none"/>
<line x1="90.0" x2="90.0" y1="510" y2="810" class="grid"/>
<line x1="90" x2="550" y1="810.0" y2="810.0" class="grid"/>
<text x="90.0" y="837" class="small" text-anchor="middle">-0.05</text>
<text x="74" y="815.0" class="small" text-anchor="end">0</text>
<line x1="320.0" x2="320.0" y1="510" y2="810" class="grid"/>
<line x1="90" x2="550" y1="660.0" y2="660.0" class="grid"/>
<text x="320.0" y="837" class="small" text-anchor="middle">0.04</text>
<text x="74" y="665.0" class="small" text-anchor="end">0.5</text>
<line x1="550.0" x2="550.0" y1="510" y2="810" class="grid"/>
<line x1="90" x2="550" y1="510.0" y2="510.0" class="grid"/>
<text x="550.0" y="837" class="small" text-anchor="middle">0.13</text>
<text x="74" y="515.0" class="small" text-anchor="end">1</text>
<rect x="90" y="510" width="460" height="300" fill="none" class="axis"/>
<text x="320.0" y="868" text-anchor="middle">Time (s)</text>
<text x="90" y="478" class="ylabel">Centre of pressure</text>
<text x="98" y="538" class="small">(c)</text>
<g clip-path="url(#clip-2)">
<polyline points="-37.8,660.0 -25.0,660.0 -12.2,660.0 0.6,660.0 13.3,660.0 26.1,660.0 38.9,660.0 51.7,660.0 64.4,660.0 77.2,660.0 90.0,660.0 102.8,660.0 115.6,660.0 128.3,660.0 141.1,660.0 153.9,660.0 166.7,660.0 179.4,660.0 192.2,660.0 205.0,660.0 217.8,660.0 230.6,660.0 243.3,660.0 256.1,660.0 268.9,660.0 281.7,660.0 294.4,660.0 307.2,660.0 320.0,660.0 332.8,660.0 345.6,660.0 358.3,660.0 371.1,660.0 383.9,660.0 396.7,660.0 409.4,660.0 422.2,660.0 435.0,660.0 447.8,660.0 460.6,660.0 473.3,660.0 486.1,660.0 498.9,660.0 511.7,660.0 524.4,660.0 537.2,660.0 550.0,660.0 562.8,660.0 575.6,660.0 588.3,660.0 601.1,660.0 613.9,660.0 626.7,660.0 639.4,660.0 652.2,660.0 665.0,660.0" fill="none" stroke="#3498db" stroke-width="4"/>
<polyline points="-37.8,660.0 -25.0,660.0 -12.2,660.0 0.6,660.0 13.3,660.0 26.1,660.0 38.9,660.0 51.7,660.0 64.4,660.0 77.2,660.0 90.0,660.0 102.8,660.0 115.6,660.0 128.3,660.0 141.1,660.0 153.9,660.0 166.7,660.0 179.4,660.0 192.2,660.0 205.0,660.0 217.8,660.0 230.6,660.2 243.3,661.0 256.1,662.8 268.9,665.3 281.7,668.5 294.4,672.1 307.2,676.0 320.0,679.9 332.8,683.9 345.6,687.8 358.3,691.6 371.1,695.3 383.9,698.9 396.7,702.3 409.4,705.5 422.2,708.6 435.0,711.4 447.8,713.9 460.6,716.1 473.3,717.9 486.1,719.2 498.9,719.8 511.7,719.6 524.4,718.3 537.2,715.5 550.0,711.1 562.8,704.7 575.6,696.1 588.3,685.5 601.1,673.4 613.9,660.9 626.7,649.4 639.4,640.3 652.2,634.4 665.0,631.8" fill="none" stroke="#9fc32b" stroke-width="4"/>
</g>
<line x1="115" x2="170" y1="545" y2="545" stroke="#3498db" stroke-width="5"/>
<text x="180" y="552" class="legend">Fixed</text>
<line x1="115" x2="170" y1="573" y2="573" stroke="#9fc32b" stroke-width="5"/>
<text x="180" y="580" class="legend">Hinged</text>
<rect x="635" y="510" width="460" height="300" fill="#fbfbfb" stroke="none"/>
<line x1="635.0" x2="635.0" y1="510" y2="810" class="grid"/>
<line x1="635" x2="1095" y1="810.0" y2="810.0" class="grid"/>
<text x="635.0" y="837" class="small" text-anchor="middle">-0.05</text>
<text x="619" y="815.0" class="small" text-anchor="end">-0.2</text>
<line x1="865.0" x2="865.0" y1="510" y2="810" class="grid"/>
<line x1="635" x2="1095" y1="660.0" y2="660.0" class="grid"/>
<text x="865.0" y="837" class="small" text-anchor="middle">0.04</text>
<text x="619" y="665.0" class="small" text-anchor="end">0.7</text>
<line x1="1095.0" x2="1095.0" y1="510" y2="810" class="grid"/>
<line x1="635" x2="1095" y1="510.0" y2="510.0" class="grid"/>
<text x="1095.0" y="837" class="small" text-anchor="middle">0.13</text>
<text x="619" y="515.0" class="small" text-anchor="end">1.6</text>
<rect x="635" y="510" width="460" height="300" fill="none" class="axis"/>
<text x="865.0" y="868" text-anchor="middle">Time (s)</text>
<text x="635" y="478" class="ylabel">Rejection (m/s)</text>
<text x="643" y="538" class="small">(d)</text>
<g clip-path="url(#clip-3)">
<polyline points="507.2,776.7 520.0,776.7 532.8,776.7 545.6,776.7 558.3,776.7 571.1,776.7 583.9,776.7 596.7,776.7 609.4,776.7 622.2,776.7 635.0,776.7 647.8,776.7 660.6,776.7 673.3,776.7 686.1,776.7 698.9,776.7 711.7,776.7 724.4,776.7 737.2,776.7 750.0,776.7 762.8,776.7 775.6,776.6 788.3,776.2 801.1,775.0 813.9,772.9 826.7,769.4 839.4,764.6 852.2,758.2 865.0,750.1 877.8,740.5 890.6,729.3 903.3,716.8 916.1,703.0 928.9,688.3 941.7,673.0 954.4,657.3 967.2,641.6 980.0,626.3 992.8,611.7 1005.6,598.2 1018.3,586.0 1031.1,575.4 1043.9,566.7 1056.7,560.0 1069.4,555.4 1082.2,553.1 1095.0,552.9 1107.8,554.8 1120.6,558.7 1133.3,564.4 1146.1,571.5 1158.9,579.9 1171.7,589.2 1184.4,599.0 1197.2,609.0 1210.0,618.7" fill="none" stroke="#000" stroke-width="4"/>
<polyline points="507.2,776.7 520.0,776.7 532.8,776.7 545.6,776.7 558.3,776.7 571.1,776.7 583.9,776.7 596.7,776.7 609.4,776.7 622.2,776.7 635.0,776.7 647.8,776.7 660.6,776.7 673.3,776.7 686.1,776.7 698.9,776.7 711.7,776.7 724.4,776.7 737.2,776.7 750.0,776.7 762.8,776.7 775.6,776.7 788.3,776.6 801.1,776.3 813.9,775.7 826.7,774.5 839.4,772.7 852.2,770.1 865.0,766.6 877.8,762.2 890.6,756.9 903.3,750.8 916.1,743.8 928.9,736.0 941.7,727.7 954.4,719.0 967.2,710.1 980.0,701.1 992.8,692.3 1005.6,684.0 1018.3,676.3 1031.1,669.6 1043.9,663.9 1056.7,659.5 1069.4,656.6 1082.2,655.1 1095.0,655.1 1107.8,656.5 1120.6,659.4 1133.3,663.6 1146.1,668.9 1158.9,675.0 1171.7,681.9 1184.4,689.3 1197.2,696.8 1210.0,704.4" fill="none" stroke="#9fc32b" stroke-width="4"/>
<polyline points="507.2,776.7 520.0,776.7 532.8,776.7 545.6,776.7 558.3,776.7 571.1,776.7 583.9,776.7 596.7,776.7 609.4,776.7 622.2,776.7 635.0,776.7 647.8,776.7 660.6,776.7 673.3,776.7 686.1,776.7 698.9,776.7 711.7,776.7 724.4,776.7 737.2,776.7 750.0,776.7 762.8,776.7 775.6,776.6 788.3,776.3 801.1,775.5 813.9,774.3 826.7,772.6 839.4,770.5 852.2,767.9 865.0,765.1 877.8,762.1 890.6,759.1 903.3,756.0 916.1,753.2 928.9,750.6 941.7,748.3 954.4,746.5 967.2,745.3 980.0,744.7 992.8,744.7 1005.6,745.3 1018.3,746.5 1031.1,748.3 1043.9,750.5 1056.7,753.0 1069.4,755.9 1082.2,758.9 1095.0,762.1 1107.8,765.2 1120.6,768.3 1133.3,771.2 1146.1,774.0 1158.9,776.5 1171.7,778.7 1184.4,780.5 1197.2,781.9 1210.0,782.9" fill="none" stroke="#4b3f99" stroke-width="4"/>
</g>
<line x1="660" x2="715" y1="545" y2="545" stroke="#000" stroke-width="5"/>
<text x="725" y="552" class="legend">Potential</text>
<line x1="660" x2="715" y1="573" y2="573" stroke="#9fc32b" stroke-width="5"/>
<text x="725" y="580" class="legend">Aerodynamic</text>
<line x1="660" x2="715" y1="601" y2="601" stroke="#4b3f99" stroke-width="5"/>
<text x="725" y="608" class="legend">Inertial</text>
</svg>